<ttFont>
          <CharString index="0">
            rmoveto
            156 90 88 181 27 hvcurveto
            3 30 3 24 22 vvcurveto
            129 -79 76 -136 -156 -90 -88 -181 -27 vhcurveto
            -29 callgsubr
            vhcurveto
            4 74 rmoveto
            -85 -43 43 78 -2 hvcurveto
            20 1 26 4 28 vhcurveto
            146 21 55 62 105 hhcurveto
            86 43 -43 -79 2 hvcurveto
            -20 -2 -26 -4 -28 vhcurveto
            -146 -21 -55 -61 -105 hhcurveto
            return
          </CharString>
          <CharString index="1">
            -31 -60 rlineto
            -6 hlineto
            51 -25 -45 21 -72 hhcurveto
            -142 -110 -140 -219 -129 65 -62 100 67 67 32 63 37 hvcurveto
            5 hlineto
            -1 -9 0 -7 -8 vvcurveto
            -51 31 -20 42 31 24 9 7 11 vhcurveto
            10 57 rlineto
            -40 hlineto
            return
          </CharString>
          <CharString index="2">
            -107 callsubr
            endchar
          </CharString>
          <CharString index="3">
            hlineto
            -77 -438 rlineto
            -118 -21 -79 -61 -117 hhcurveto
            -102 -58 47 91 15 2 16 3 18 hvcurveto
            75 430 -37 callgsubr
            -74 -425 rlineto
            -4 -22 -2 -21 -20 vvcurveto
            return
          </CharString>
          <CharString index="4">
            -103 -18 -85 -61 -80 hhcurveto
            -45 -33 15 54 14 2 19 3 20 hvcurveto
            60 343 -72 callsubr
            -61 -349 -34 callgsubr
            return
          </CharString>
          <CharString index="5">
            534 -60 callsubr
            -439 hlineto
            40 226 rlineto
            389 21 callsubr
            -389 hlineto
            37 211 rlineto
            433 -60 callsubr
            -528 hlineto
            return
          </CharString>
          <CharString index="6">
            rmoveto
            -104 callgsubr
            endchar
          </CharString>
          <CharString index="7">
            rmoveto
            3 17 1 16 15 vvcurveto
            133 -116 65 -169 -128 -102 -44 -77 -70 vhcurveto
            -70 -78 -38 -112 -135 vvcurveto
            -169 98 -95 187 vhcurveto
            hintmask 10111110
            101 85 28 68 66 hvcurveto
            hintmask 01111110
            -84 72 vlineto
            63 357 rlineto
            -337 hlineto
            -15 -83 rlineto
            242 hlineto
            -1 -10 rlineto
            hintmask 10111110
            -105 -11 -98 -90 -161 hhcurveto
            -124 -68 54 138 45 5 42 9 37 hvcurveto
            147 37 106 85 158 hhcurveto
            hintmask 10111101
            110 71 -41 -91 -10 -1 -11 -2 -12 hvcurveto
            endchar
          </CharString>
          <CharString index="8">
            rmoveto
            153 151 62 159 hvcurveto
            hintmask 11101100
            221 -401 -67 148 vvcurveto
            73 86 33 106 vhcurveto
            hintmask 11101010
            88 61 -33 -60 -5 0 -11 -4 -15 hvcurveto
            93 hlineto
            4 20 1 17 12 vvcurveto
            110 -108 46 -144 -143 -139 -63 -135 vhcurveto
            hintmask 11101100
            -221 400 72 -156 vvcurveto
            -81 -85 -45 -130 vhcurveto
            hintmask 11110100
            -98 -67 33 69 15 5 18 3 10 hvcurveto
            -94 hlineto
            -5 -15 -3 -26 -18 vvcurveto
            -122 119 -45 151 vhcurveto
            return
          </CharString>
          <CharString index="9">
            rmoveto
            166 102 72 183 31 hvcurveto
            36 200 43 243 -37 callgsubr
            -39 -218 rlineto
            -131 -23 -83 -68 -109 hhcurveto
            hintmask 11110100
            -77 -41 34 67 11 1 13 3 14 hvcurveto
            49 278 -37 callgsubr
            -49 -273 rlineto
            -4 -22 -2 -21 -18 vvcurveto
            -114 69 -50 117 89 70 30 65 47 vhcurveto
            6 hlineto
            -8 -45 rlineto
            -119 -21 -67 -50 -106 hhcurveto
            hintmask 11111000
            -97 -42 32 67 hvcurveto
            -98 -10 hlineto
            -118 93 -52 134 vhcurveto
            endchar
          </CharString>
          <CharString index="10">
            50 37 -31 56 hhcurveto
            60 34 48 56 10 hvcurveto
            -65 hlineto
            -23 -6 -13 -8 -15 -50 -37 31 -56 hhcurveto
            -60 -34 -48 -56 -9 hvcurveto
            return
          </CharString>
          <CharString index="11">
            -84 callgsubr
            -51 callgsubr
            -90 callsubr
            -462 -79 callgsubr
            return
          </CharString>
          <CharString index="12">
            -87 callsubr
            endchar
          </CharString>
          <CharString index="13">
            -23 -71 rlineto
            -6 hlineto
            55 -28 -58 28 -73 hhcurveto
            -149 -102 -140 -209 -125 66 -56 104 70 52 27 45 41 hvcurveto
            6 hlineto
            -4 -21 rlineto
            -114 -22 -58 -55 -88 hhcurveto
            -64 -40 -1 callgsubr
            77 -49 117 vhcurveto
            34 263 rmoveto
            -77 -35 30 81 150 58 123 121 76 32 -43 -80 -130 -59 -131 -116 hvcurveto
            endchar
          </CharString>
          <CharString index="14">
            rmoveto
            84 hlineto
            129 135 rlineto
            -94 hlineto
            -70 -79 -45 79 rlineto
            -86 hlineto
            return
          </CharString>
          <CharString index="15">
            -97 callgsubr
            -54 -87 callsubr
            return
          </CharString>
          <CharString index="16">
            rmoveto
            117 108 55 128 hvcurveto
            hintmask 11101100
            167 -284 -51 101 vvcurveto
            27 21 50 105 vhcurveto
            hintmask 11101010
            74 24 -31 -36 -8 -1 -7 -2 -8 hvcurveto
            86 hlineto
            3 6 4 21 14 vvcurveto
            68 -63 54 -127 -124 -94 -66 -104 vhcurveto
            hintmask 11101100
            -158 283 53 -116 vvcurveto
            -56 -64 -31 -73 vhcurveto
            hintmask 11110100
            -65 -49 23 54 4 1 12 3 11 hvcurveto
            -87 hlineto
            0 -7 -24 -22 vvcurveto
            -69 59 -61 152 vhcurveto
            return
          </CharString>
          <CharString index="17">
            -61 -8 31 22 -1 hvcurveto
            -61 hlineto
            -2 -8 0 -7 -8 vvcurveto
            -48 31 -46 103 vhcurveto
            return
          </CharString>
          <CharString index="18">
            rmoveto
            139 70 95 112 18 hvcurveto
            -85 hlineto
            -67 -13 -43 -67 -89 hhcurveto
            -70 -38 37 100 27 2 30 5 29 hvcurveto
            91 16 45 90 105 hhcurveto
            81 18 -48 -57 -10 0 -9 -1 -10 hvcurveto
            90 hlineto
            1 12 1 13 12 vvcurveto
            98 -50 72 -143 -193 -69 -179 -166 -139 61 -66 142 vhcurveto
            endchar
          </CharString>
          <CharString index="19">
            727 868 -86 callsubr
            return
          </CharString>
          <CharString index="20">
            -735 -107 callsubr
            return
          </CharString>
          <CharString index="21">
            -61 callgsubr
            -14 -36 -25 -24 -35 -14 rrcurveto
            -69 -104 callsubr
            -137 93 -73 165 167 110 80 185 33 vhcurveto
            67 381 76 31 44 62 13 87 rlinecurve
            9 54 rlineto
            return
          </CharString>
          <CharString index="22">
            95 hlineto
            50 283 rlineto
            256 hlineto
            99 -283 rlineto
            102 hlineto
            -105 295 rlineto
            96 29 68 83 106 vvcurveto
            104 -63 69 -130 vhcurveto
            -347 hlineto
            39 -320 rmoveto
            41 237 rlineto
            257 hlineto
            70 35 -35 -60 -89 -66 -53 -80 hvcurveto
            return
          </CharString>
          <CharString index="23">
            rmoveto
            76 hlineto
            -38 132 rlineto
            -97 hlineto
            -2 -3 rlineto
            200 -129 rmoveto
            76 hlineto
            -38 132 rlineto
            -97 hlineto
            -2 -3 rlineto
            return
          </CharString>
          <CharString index="24">
            -54 callsubr
            hintmask 01111110
            -79 callsubr
            hintmask 10111110
            -103 callsubr
            vhcurveto
            endchar
          </CharString>
          <CharString index="25">
            450 29 callsubr
            -317 hlineto
            372 407 8 46 rlineto
            -413 hlineto
            -13 -73 rlineto
            278 hlineto
            -370 -406 rlineto
            return
          </CharString>
          <CharString index="26">
            95 hlineto
            50 284 341 402 rlineto
            -109 hlineto
            -262 -317 rlineto
            -5 hlineto
            -156 317 rlineto
            -104 hlineto
            200 -402 rlineto
            return
          </CharString>
          <CharString index="27">
            -25 callgsubr
            104 587 -72 callsubr
            -105 -591 rlineto
            -31 -5 -18 -17 -31 hhcurveto
            -44 hlineto
            -10 -57 rlineto
            -31 callsubr
          </CharString>
          <CharString index="28">
            -71 64 vlineto
            -73 callgsubr
            -53 -301 rlineto
            return
          </CharString>
          <CharString index="29">
            565 -60 callsubr
            -417 hlineto
            505 554 9 49 rlineto
            -531 hlineto
            -15 -83 rlineto
            381 hlineto
            -503 -554 rlineto
            return
          </CharString>
          <CharString index="30">
            rmoveto
            97 hlineto
            hintmask 11110000
            130 314 rlineto
            12 29 31 79 0 vvcurveto
            4 hlineto
            0 2 -78 2 -30 vhcurveto
            hintmask 11101000
            21 -314 rlineto
            96 hlineto
            251 526 rlineto
            -89 hlineto
            -133 -298 rlineto
            -15 -33 -36 -91 0 vvcurveto
            -5 hlineto
            0 -3 96 -2 28 vhcurveto
            hintmask 11110000
            -20 298 rlineto
            -108 hlineto
            -122 -298 rlineto
            -9 -23 -37 -101 0 vvcurveto
            -5 hlineto
            0 -7 96 -3 28 vhcurveto
            -28 298 rlineto
            -89 hlineto
            endchar
          </CharString>
          <CharString index="31">
            751 -84 callgsubr
            -51 callgsubr
            -90 callsubr
            return
          </CharString>
          <CharString index="32">
            274 hlineto
            117 99 39 72 70 hvcurveto
            67 71 39 103 129 vvcurveto
            188 -115 84 -196 vhcurveto
            return
          </CharString>
          <CharString index="33">
            rlineto
            -4 -23 -3 -24 -18 vvcurveto
            return
          </CharString>
          <CharString index="34">
            -71 callsubr
            -7 17 29 -5 27 hhcurveto
            return
          </CharString>
          <CharString index="35">
            rlineto
            -88 hlineto
            return
          </CharString>
          <CharString index="36">
            47 callsubr
            52 hlineto
            11 61 rlineto
            7 -17 -29 5 -27 hhcurveto
            -98 -27 -61 -60 -10 hvcurveto
            -15 -84 rlineto
            -77 hlineto
            -13 -73 rlineto
            77 hlineto
            -91 -514 68 callgsubr
            -32 hhcurveto
            -52 hlineto
            -11 -61 rlineto
            return
          </CharString>
          <CharString index="37">
            27 47 vvcurveto
            55 -45 30 -70 -66 -55 -40 -62 -10 vhcurveto
            -3 -19 rlineto
            63 hlineto
            2 14 rlineto
            36 5 31 16 33 hhcurveto
            28 23 -11 -29 -40 -36 -19 -35 hvcurveto
            return
          </CharString>
          <CharString index="38">
            rmoveto
            305 hlineto
            13 72 rlineto
            -305 hlineto
            return
          </CharString>
          <CharString index="39">
            -32 hlineto
            -10 -56 rlineto
            30 hlineto
            32 29 -9 -31 -46 -36 -19 -41 -36 -20 15 28 4 0 8 4 15 hvcurveto
            -63 hlineto
            -4 -14 -1 -16 -8 vvcurveto
            return
          </CharString>
          <CharString index="40">
            64 68 34 49 40 hvcurveto
            7 hlineto
            return
          </CharString>
          <CharString index="41">
            65 0 84 533 81 hstem
            39 95 476 98 vstem
            -24 hmoveto
            306 hlineto
            12 71 rlineto
            -97 20 -63 41 121 vvcurveto
            26 3 30 6 34 vhcurveto
            201 37 102 73 144 hhcurveto
            114 70 -51 -132 -27 -3 -30 -6 -34 hvcurveto
            -34 -193 -85 -54 -129 -25 -12 -71 rcurveline
            308 hlineto
            15 84 rlineto
            -40 hlineto
            -35 -29 -3 -1 -30 hvcurveto
            111 74 67 122 165 vvcurveto
            172 -104 85 -179 -237 -149 -186 -240 -82 30 -64 56 -46 vhcurveto
            1 -39 -33 3 -23 hhcurveto
            -39 hlineto
            endchar
          </CharString>
          <CharString index="42">
            -71 65 vlineto
            -24 callgsubr
            -45 -257 rlineto
            -6 hlineto
            46 -27 -47 26 -76 hhcurveto
            -142 -110 -133 -209 hvcurveto
            return
          </CharString>
          <CharString index="43">
            773 -91 callgsubr
            return
          </CharString>
          <CharString index="44">
            rmoveto
            -55 callgsubr
            return
          </CharString>
          <CharString index="45">
            rmoveto
            -75 -36 35 96 151 58 122 114 82 33 -44 -80 -140 -57 -140 -119 hvcurveto
            return
          </CharString>
          <CharString index="46">
            rmoveto
            71 40 47 65 45 -35 35 -49 -71 -40 -48 -65 -45 35 -34 49 hvcurveto
            6 45 rmoveto
            -29 -15 18 23 32 21 29 38 28 16 -19 -23 -32 -21 -28 -38 hvcurveto
            return
          </CharString>
          <CharString index="47">
            hlineto
            15 83 rlineto
            return
          </CharString>
          <CharString index="48">
            -16 0 -52 callgsubr
            return
          </CharString>
          <CharString index="49">
            -131 79 -77 135 return
          </CharString>
          <CharString index="50">
            rmoveto
            -45 callgsubr
            endchar
          </CharString>
          <CharString index="51">
            -63 callsubr
            endchar
          </CharString>
          <CharString index="52">
            rmoveto
            -190 -33 -99 -91 -169 hhcurveto
            -125 -74 69 116 29 2 27 5 26 hvcurveto
            return
          </CharString>
          <CharString index="53">
            -91 callgsubr
            -209 -5 callgsubr
            return
          </CharString>
          <CharString index="54">
            rmoveto
            75 hlineto
            68 129 -1 3 rlineto
            -96 hlineto
            return
          </CharString>
          <CharString index="55">
            23 6 13 8 15 return
          </CharString>
          <CharString index="56">
            hlineto
            -73 callgsubr
            return
          </CharString>
          <CharString index="57">
            -107 -152 -21 161 -41 callgsubr
            hstemhm
            391 64 hintmask 11011000
            -173 vmoveto
            88 hlineto
            32 184 rlineto
            -15 25 30 -8 37 hhcurveto
            -67 callsubr
            hintmask 10111000
            -79 callsubr
            hintmask 11011000
            -103 -18 -85 -61 -80 hhcurveto
            -45 -33 15 54 14 2 19 3 20 hvcurveto
            60 343 -72 callsubr
            endchar
          </CharString>
          <CharString index="58">
            39 -33 callgsubr
            return
          </CharString>
          <CharString index="59">
            hstemhm
            21 92 248 79 return
          </CharString>
          <CharString index="60">
            46 66 161 38 119 vvcurveto
            60 -44 25 -61 -74 -68 -40 -97 -5 vhcurveto
            62 hlineto
            5 25 rlineto
            30 6 19 26 48 hhcurveto
            37 10 -19 -18 -82 -204 -48 -24 -117 hvcurveto
            return
          </CharString>
          <CharString index="61">
            rmoveto
            100 5 callgsubr
            -100 hlineto
            return
          </CharString>
          <CharString index="62">
            -12 -41 callgsubr
            return
          </CharString>
          <CharString index="63">
            49 vstem
            368 -12 rmoveto
            196 159 159 196 196 -159 159 -196 -196 -159 -159 -196 -196 159 -159 196 hvcurveto
            47 vmoveto
            -169 -137 138 170 170 137 138 169 169 137 -138 -170 -170 -137 -138 -169 hvcurveto
            return
          </CharString>
          <CharString index="64">
            vvcurveto
            -56 46 -18 42 20 21 5 9 23 vhcurveto
            59 callgsubr
            -33 -11 19 22 35 28 31 23 18 hvcurveto
            return
          </CharString>
          <CharString index="65">
            37 callsubr
            -95 hlineto
            return
          </CharString>
          <CharString index="66">
            -62 callsubr
            endchar
          </CharString>
          <CharString index="67">
            24 61 -2 hvcurveto
            -86 -10 hlineto
            return
          </CharString>
          <CharString index="68">
            rmoveto
            83 80 27 66 61 hvcurveto
            -63 32 71 -30 101 hhcurveto
            110 97 63 128 20 hvcurveto
            -86 hlineto
            -85 -13 -63 -33 -67 hhcurveto
            -92 -43 45 95 12 0 12 3 14 hvcurveto
            371 hlineto
            8 44 rlineto
            5 27 3 24 23 vvcurveto
            119 -72 62 -129 -79 -60 -25 -42 -44 vhcurveto
            43 -27 -55 24 -84 hhcurveto
            return
          </CharString>
          <CharString index="69">
            rmoveto
            35 callsubr
            -108 -132 rlineto
            86 hlineto
            return
          </CharString>
          <CharString index="70">
            102 hlineto
            122 183 rlineto
            331 hlineto
            19 -183 rlineto
            372 -60 callsubr
            -305 hlineto
            -23 226 rlineto
            318 21 callsubr
            -342 hlineto
            -22 211 rlineto
            445 -60 callsubr
            -595 hlineto
            -186 -420 rmoveto
            227 337 rlineto
            5 hlineto
            35 -337 rlineto
            endchar
          </CharString>
          <CharString index="71">
            rmoveto
            80 hlineto
            671 710 rlineto
            -80 hlineto
            return
          </CharString>
          <CharString index="72">
            53 302 rlineto
            -30 hlineto
            -37 -19 -57 -14 -34 -4 -7 -40 rcurveline
            88 hlineto
            -39 -225 -72 callsubr
            return
          </CharString>
          <CharString index="73">
            -182 72 118 73 384 73 -12 -20 return
          </CharString>
          <CharString index="74">
            121 -17 callgsubr
            return
          </CharString>
          <CharString index="75">
            73 404 73 return
          </CharString>
          <CharString index="76">
            -6 16 27 -6 24 hhcurveto
            endchar
          </CharString>
          <CharString index="77">
            rmoveto
            52 hlineto
            74 143 17 99 rlineto
            -100 hlineto
            -19 -108 rlineto
            40 hlineto
            return
          </CharString>
          <CharString index="78">
            -405 21 28 callsubr
            return
          </CharString>
          <CharString index="79">
            -12 -15 callsubr
            return
          </CharString>
          <CharString index="80">
            30 217 rmoveto
            -30 -18 15 27 35 27 21 38 31 18 -14 -25 -37 -33 -22 -33 hvcurveto
            return
          </CharString>
          <CharString index="81">
            -183 -182 65 -36 -21 700 -20 return
          </CharString>
          <CharString index="82">
            -15 -9 -7 -23 vhcurveto
            -13 hlineto
            return
          </CharString>
          <CharString index="83">
            38 22 21 35 34 vvcurveto
            50 -35 38 -76 -78 -52 -51 -62 -26 12 -24 21 -16 vhcurveto
            return
          </CharString>
          <CharString index="84">
            rmoveto
            88 hlineto
            17 98 -72 callsubr
            return
          </CharString>
          <CharString index="85">
            -2 callsubr
            106 603 -37 callgsubr
            return
          </CharString>
          <CharString index="86">
            -5 28 39 -3 36 hhcurveto
            58 66 14 74 41 -37 17 -45 hvcurveto
            return
          </CharString>
          <CharString index="87">
            21 90 311 89 return
          </CharString>
          <CharString index="88">
            199 -12 rmoveto
            64 59 28 55 42 hvcurveto
            6 hlineto
            return
          </CharString>
          <CharString index="89">
            rmoveto
            143 82 81 164 29 hvcurveto
            return
          </CharString>
          <CharString index="90">
            -12 73 -40 20 callgsubr
            -50 callgsubr
            hintmask 10111100
            return
          </CharString>
          <CharString index="91">
            hstemhm
            1 90 -32 94 189 95 -60 90 return
          </CharString>
          <CharString index="92">
            74 403 73 return
          </CharString>
          <CharString index="93">
            42 callgsubr
            hstem
            18 697 vstem
            18 hmoveto
            95 hlineto
            34 195 186 151 165 -346 rlineto
            105 hlineto
            -196 411 308 275 rlineto
            -124 hlineto
            -424 -378 67 378 -37 callgsubr
            return
          </CharString>
          <CharString index="94">
            779 -12 callsubr
            return
          </CharString>
          <CharString index="95">
            -71 callgsubr
            -191 -18 callgsubr
            return
          </CharString>
          <CharString index="96">
            14 79 424 0 vhcurveto
            -311 -465 rmoveto
            -66 -29 43 80 hvcurveto
            return
          </CharString>
          <CharString index="97">
            95 hlineto
            106 603 -26 callgsubr
            return
          </CharString>
          <CharString index="98">
            -16 -12 81 119 81 417 -20 return
          </CharString>
          <CharString index="99">
            628 -101 callgsubr
            return
          </CharString>
          <CharString index="100">
            268 -76 callgsubr
            return
          </CharString>
          <CharString index="101">
            rmoveto
            100 5 callgsubr
            -40 hlineto
            64 134 rlineto
            -52 hlineto
            -73 -143 rlineto
            return
          </CharString>
          <CharString index="102">
            -350 21 7 callgsubr
            return
          </CharString>
          <CharString index="103">
            -146 68 -62 110 vhcurveto
            25 73 -62 callsubr
            return
          </CharString>
          <CharString index="104">
            rmoveto
            74 65 47 73 33 -17 23 -28 15 hvcurveto
            2 vlineto
            return
          </CharString>
          <CharString index="105">
            464 -60 callsubr
            -369 hlineto
            return
          </CharString>
          <CharString index="106">
            -21 465 73 -12 -20 return
          </CharString>
          <CharString index="107">
            rmoveto
            84 hlineto
            64 74 rlineto
            -25 47 61 -12 72 hhcurveto
            99 87 30 55 67 hvcurveto
            95 77 56 126 160 vvcurveto
            80 -23 62 -44 44 vhcurveto
            return
          </CharString>
          <CharString index="108">
            10 56 rlineto
            -45 hlineto
            31 176 rlineto
            -41 hlineto
            -14 -36 -10 -21 -12 -23 -17 -96 rcurveline
            -95 hlineto
            33 43 62 97 34 86 rrcurveto
            -70 hlineto
            return
          </CharString>
          <CharString index="109">
            773 -101 callgsubr
            return
          </CharString>
          <CharString index="110">
            -59 callsubr
            47 135 return
          </CharString>
          <CharString index="111">
            rmoveto
            51 hlineto
            49 132 26 146 rlineto
            -100 hlineto
            -26 -146 rlineto
            return
          </CharString>
          <CharString index="112">
            21 42 callgsubr
            return
          </CharString>
          <CharString index="113">
            rmoveto
            472 -60 callsubr
            -472 hlineto
            endchar
          </CharString>
          <CharString index="114">
            12 callgsubr
            endchar
          </CharString>
          <CharString index="115">
            185 200 -122 200 rlineto
            -71 hlineto
            94 -200 rlineto
            return
          </CharString>
          <CharString index="116">
            rmoveto
            88 52 54 66 29 -14 26 -25 16 hvcurveto
            return
          </CharString>
          <CharString index="117">
            21 -21 686 59 callsubr
            return
          </CharString>
          <CharString index="118">
            hstemhm
            -39 callgsubr
            return
          </CharString>
          <CharString index="119">
            vstem
            123 16 callsubr
            -127 31 callsubr
            return
          </CharString>
          <CharString index="120">
            200 -18 17 93 -206 -17 49 197 -72 callsubr
            -21 -197 -199 17 -17 -93 205 18 return
          </CharString>
          <CharString index="121">
            -350 221 98 hstem
            20 287 vstem
            20 221 rmoveto
            270 hlineto
            17 98 rlineto
            -270 hlineto
            endchar
          </CharString>
          <CharString index="122">
            hstemhm
            382 79 -64.5 79.5 return
          </CharString>
          <CharString index="123">
            625 -23 callsubr
            return
          </CharString>
          <CharString index="124">
            71 callsubr
            -66 hlineto
            return
          </CharString>
          <CharString index="125">
            hstemhm
            45 98 -57 97 hintmask 11110100
            return
          </CharString>
          <CharString index="126">
            -183 34 callsubr
            return
          </CharString>
          <CharString index="127">
            hstem
            37 98 464 98 vstem
            return
          </CharString>
          <CharString index="128">
            hlineto
            14 83 rlineto
            return
          </CharString>
          <CharString index="129">
            83 211 83 return
          </CharString>
          <CharString index="130">
            37 callgsubr
            -95 132 11 callsubr
            hintmask 00000000
            hintmask 11011100
            return
          </CharString>
          <CharString index="131">
            -218 rmoveto
            47 hlineto
            hintmask 11101100
            -28 callgsubr
            -16 -91 rlineto
            35 hlineto
            endchar
          </CharString>
          <CharString index="132">
            vstem
            -7 callsubr
            return
          </CharString>
          <CharString index="133">
            -68 callgsubr
            47 135 return
          </CharString>
          <CharString index="134">
            39 21 11 callgsubr
            return
          </CharString>
          <CharString index="135">
            -21 526 -20 return
          </CharString>
          <CharString index="136">
            hlineto
            13 73 rlineto
            return
          </CharString>
          <CharString index="137">
            9 callgsubr
            53 132 hstem
            -41 654 vstem
            return
          </CharString>
          <CharString index="138">
            -723 -63 callsubr
            return
          </CharString>
          <CharString index="139">
            rmoveto
            62 hlineto
            117 515 rlineto
            -114 hlineto
            return
          </CharString>
          <CharString index="140">
            261 0 97 496 93 return
          </CharString>
          <CharString index="141">
            -12 -32 callsubr
            return
          </CharString>
          <CharString index="142">
            -1 3 rlineto
            -101 hlineto
            return
          </CharString>
          <CharString index="143">
            -48 callsubr
            hintmask 11011100
            return
          </CharString>
          <CharString index="144">
            hlineto
            -33 callsubr
            return
          </CharString>
          <CharString index="145">
            41 callgsubr
            132 41 callsubr
            return
          </CharString>
          <CharString index="146">
            rlineto
            249 hlineto
            139 106 101 142 108 -62 72 -128 hvcurveto
            return
          </CharString>
          <CharString index="147">
            rmoveto
            81 hlineto
            82 167 rlineto
            4 -104 vlineto
            return
          </CharString>
          <CharString index="148">
            hstem
            18 649 vstem
            return
          </CharString>
          <CharString index="149">
            19 108 rlineto
            return
          </CharString>
          <CharString index="150">
            73 -61 61 404 70 callsubr
            return
          </CharString>
          <CharString index="151">
            -182 69 134 28 callsubr
            return
          </CharString>
          <CharString index="152">
            -183 0 73 380 73 return
          </CharString>
          <CharString index="153">
            64 -27 63 94 64 -44 64 return
          </CharString>
          <CharString index="154">
            rlineto
            31 5 19 17 33 hhcurveto
            return
          </CharString>
          <CharString index="155">
            50 callsubr
            41 return
          </CharString>
          <CharString index="156">
            -21 465 73 185 -20 return
          </CharString>
          <CharString index="157">
            -182 57 -28 -21 97 return
          </CharString>
          <CharString index="158">
            hstem
            586 98 vstem
            return
          </CharString>
          <CharString index="159">
            -72 0 83 520 83 50 132 hstem
            -37 677 vstem
            return
          </CharString>
          <CharString index="160">
            -46 callgsubr
            hstemhm
            return
          </CharString>
          <CharString index="161">
            -34 -87 -38 -74 -51 -70 -9 -51 rcurveline
            158 hlineto
            endchar
          </CharString>
          <CharString index="162">
            -173 95 66 return
          </CharString>
          <CharString index="163">
            -423 -152 -21 896 -20 hstem
            91 78 vstem
            91 return
          </CharString>
          <CharString index="164">
            151 -12 55 106 56 98 55 return
          </CharString>
          <CharString index="165">
            108 -50 callgsubr
            return
          </CharString>
          <CharString index="166">
            -20 70 132 hstem
            return
          </CharString>
          <CharString index="167">
            rmoveto
            21 hlineto
            197 189 8 50 -147 -58 return
          </CharString>
          <CharString index="168">
            73 -42 73 hstemhm
            return
          </CharString>
          <CharString index="169">
            rmoveto
            -37 -19 23 56 19 1 20 4 19 hvcurveto
            return
          </CharString>
          <CharString index="170">
            140 57 140 119 75 36 -35 -96 return
          </CharString>
          <CharString index="171">
            hhcurveto
            43 19 -23 -58 -18 -1 -19 -3 -18 hvcurveto
            return
          </CharString>
          <CharString index="172">
            31 hmoveto
            -45 callgsubr
            return
          </CharString>
          <CharString index="173" raw="1">
            f71b66d3 1d0b  
          </CharString>
          <CharString index="174">
            hstem
            67 582 vstem
            return
          </CharString>
          <CharString index="175">
            5 callsubr
            70 71 callgsubr
            return
          </CharString>
          <CharString index="176">
            54 10 25 48 50 hhcurveto
            40 18 -23 -57 return
          </CharString>
          <CharString index="177">
            73 185 -20 hstemhm
            21 92 257 65 return
          </CharString>
          <CharString index="178">
            82 463 rlineto
            return
          </CharString>
        <CharString name=".notdef">
          -182 0 50 600 50 hstem
          0 50 400 50 vstem
          0 vmoveto
          500 700 -500 hlineto
          250 -305 rmoveto
          -170 255 rlineto
          340 hlineto
          -370 -555 rmoveto
          510 vlineto
          170 -255 rlineto
          230 -255 rmoveto
          -170 255 170 255 rlineto
          -370 -555 rmoveto
          170 255 170 -255 rlineto
          endchar
        </CharString>
        <CharString name="A">
          -68 callgsubr
          hstem
          -41 654 vstem
          -41 hmoveto
          -104 callgsubr
          endchar
        </CharString>
        <CharString name="AE">
          317 0 83 100 83 43 22 callsubr
          hstem
          -61 1061 vstem
          -61 hmoveto
          -37 callsubr
        </CharString>
        <CharString name="AEacute">
          317 0 83 100 83 43 22 callsubr
          50 132 hstem
          -61 1061 vstem
          543 736 -94 callgsubr
          -712 -868 rmoveto
          -37 callsubr
        </CharString>
        <CharString name="Aacute">
          39 callgsubr
          377 736 -94 callgsubr
          -526 -868 -101 callsubr
        </CharString>
        <CharString name="Abreve">
          9 callgsubr
          hstem
          -41 654 vstem
          421 751 -96 callsubr
          endchar
        </CharString>
        <CharString name="Acircumflex">
          26 callsubr
          hstem
          -41 654 25 callsubr
          -438 -868 -101 callsubr
        </CharString>
        <CharString name="Adieresis">
          -68 callgsubr
          87 95 hstem
          -41 654 vstem
          290 -64 callsubr
          -535 -868 -101 callsubr
        </CharString>
        <CharString name="Agrave">
          39 callgsubr
          383 736 -78 callgsubr
          -339 -865 -101 callsubr
        </CharString>
        <CharString name="Amacron">
          -68 callgsubr
          86 72 hstem
          -41 654 vstem
          275 772 -69 callsubr
          -329 -844 -101 callsubr
        </CharString>
        <CharString name="Aogonek">
          -16 -182 65 138 -21 183 83 338 82 hstem
          438 85 vstem
          511 -182 rmoveto
          22 24 3 11 26 hvcurveto
          59 callgsubr
          -27 -10 19 22 31 32 27 33 18 hvcurveto
          25 hlineto
          -145 -17 callgsubr
          -123 hlineto
          -386 -686 rlineto
          100 hlineto
          100 183 rlineto
          318 hlineto
          36 -183 rlineto
          -41 -24 -34 -35 -49 vvcurveto
          -56 39 -18 34 vhcurveto
          -307 448 31 callgsubr
        </CharString>
        <CharString name="Aring">
          -68 callgsubr
          25 45 102 45 hstemhm
          332 66 callgsubr
          416 711 -61 callsubr
          -463 -756 43 callgsubr
          hintmask 11101110
          -145 -17 callgsubr
          -123 hlineto
          -141 -420 31 callgsubr
        </CharString>
        <CharString name="Aringacute">
          -16 21 -21 183 83 426 -20 122 45 22 132 hstemhm
          318 66 callgsubr
          396 861 -94 callgsubr
          -545 -993 43 callgsubr
          -141 668 rlineto
          hintmask 11110110
          27 19 14 33 39 vvcurveto
          45 -35 35 -49 -71 -40 -48 -65 -21 7 -19 13 -13 vhcurveto
          70 19 rmoveto
          -29 -15 18 23 32 21 29 38 28 16 -19 -23 -32 -21 -28 -38 hvcurveto
          -204 -426 31 callgsubr
        </CharString>
        <CharString name="Atilde">
          -68 callgsubr
          78 104 hstem
          -41 654 vstem
          262 764 rmoveto
          64 hlineto
          23 6 13 8 15 -97 callsubr
          -303 -764 -101 callsubr
        </CharString>
        <CharString name="B">
          -16 0 83 227 83 210 83 hstemhm
          499 96 -57 94 hintmask 11110000
          18 hmoveto
          351 hlineto
          118 108 60 153 81 -44 45 -62 17 hvcurveto
          4 vlineto
          hintmask 11101000
          77 22 66 68 90 vvcurveto
          97 -75 49 -119 vhcurveto
          -299 hlineto
          43 -293 rmoveto
          37 210 rlineto
          220 hlineto
          61 38 -23 -64 -71 -58 -52 -84 hvcurveto
          -268 -310 rmoveto
          40 227 rlineto
          227 hlineto
          hintmask 11110000
          68 36 -31 -64 -102 -63 -30 -74 hvcurveto
          endchar
        </CharString>
        <CharString name="C">
          39 16 callgsubr
          20 callsubr
          328 -12 -95 callgsubr
        </CharString>
        <CharString name="CR">
          -683 endchar
        </CharString>
        <CharString name="Cacute">
          39 16 callgsubr
          38 132 20 callsubr
          404 736 -94 callgsubr
          -184 -880 -95 callgsubr
        </CharString>
        <CharString name="Cacute.loclPLK">
          39 16 callgsubr
          38 132 20 callsubr
          398 736 -53 callsubr
          -116 -880 -95 callgsubr
        </CharString>
        <CharString name="Ccaron">
          39 16 callgsubr
          35 135 20 callsubr
          405 733 -93 callsubr
          5 -880 -95 callgsubr
        </CharString>
        <CharString name="Ccedilla">
          39 48 callsubr
          26 79 548 81 hstemhm
          37 98 210 73 181 98 hintmask 10011111
          692 438 rmoveto
          3 20 2 19 18 vvcurveto
          136 -106 67 -158 -97 -82 -28 -49 -64 vhcurveto
          -99 -77 -54 -131 -163 vvcurveto
          -162 83 -85 163 -13 vhcurveto
          hintmask 10111111
          -24 -67 -42 callgsubr
          hintmask 01011111
          -9 -49 rlineto
          hintmask 10111111
          -21 callsubr
          8 24 160 5 125 82 29 171 rlinecurve
          -93 hlineto
          hintmask 10011111
          -119 -22 -93 -58 -128 hhcurveto
          -124 -63 55 134 44 5 42 9 37 hvcurveto
          146 34 100 90 156 hhcurveto
          100 60 -45 -92 -12 -2 -15 -2 -15 hvcurveto
          endchar
        </CharString>
        <CharString name="Ccircumflex">
          39 16 callgsubr
          35 135 20 callsubr
          295 -76 callgsubr
          -96 -880 -95 callgsubr
        </CharString>
        <CharString name="Cdotaccent">
          39 16 callgsubr
          75 95 20 callsubr
          410 2 callsubr
          -99 -880 -95 callgsubr
        </CharString>
        <CharString name="D">
          39 0 83 520 83 51 callsubr
          18 hmoveto
          -65 callgsubr
          endchar
        </CharString>
        <CharString name="Dcaron">
          39 0 83 520 83 47 135 51 callsubr
          348 733 -93 callsubr
          -248 -868 rmoveto
          -65 callgsubr
          endchar
        </CharString>
        <CharString name="Dcroat">
          -62 callgsubr
        </CharString>
        <CharString name="E">
          -59 callsubr
          41 callsubr
          18 hmoveto
          -102 callsubr
          endchar
        </CharString>
        <CharString name="Eacute">
          38 callsubr
          377 736 -94 callgsubr
          -467 -868 rmoveto
          -102 callsubr
          endchar
        </CharString>
        <CharString name="Ebreve">
          -59 callsubr
          65 64 41 callsubr
          421 -76 callsubr
          -403 -751 rmoveto
          -102 callsubr
          endchar
        </CharString>
        <CharString name="Ecaron">
          3 callsubr
          41 callsubr
          378 733 -93 callsubr
          -278 -868 rmoveto
          -102 callsubr
          endchar
        </CharString>
        <CharString name="Ecircumflex">
          3 callsubr
          hstem
          18 649 25 callsubr
          -379 -868 rmoveto
          -102 callsubr
          endchar
        </CharString>
        <CharString name="Edieresis">
          -59 callsubr
          87 95 41 callsubr
          290 -64 callsubr
          -476 -868 rmoveto
          -102 callsubr
          endchar
        </CharString>
        <CharString name="Edotaccent">
          -59 callsubr
          87 95 41 callsubr
          383 2 callsubr
          -382 -868 rmoveto
          -102 callsubr
          endchar
        </CharString>
        <CharString name="Egrave">
          38 callsubr
          383 736 -78 callgsubr
          -280 -865 rmoveto
          -102 callsubr
          endchar
        </CharString>
        <CharString name="Emacron">
          -59 callsubr
          86 72 41 callsubr
          275 772 -69 callsubr
          -270 -844 rmoveto
          -102 callsubr
          endchar
        </CharString>
        <CharString name="Eng">
          39 -182 69 134 -21 537.5 148.5 0 -20 hstemhm
          18 686 hintmask 11011000
          442 27 callgsubr
          132 747 rlineto
          -89 hlineto
          -81 -460 -11 -62 -4 -1 -8 15 -9 14 -8 15 rlinecurve
          -270 479 rlineto
          -85 hlineto
          -121 -686 rlineto
          89 hlineto
          hintmask 11101000
          83 467 6 70 5 1 12 -17 5 -18 12 -17 rlinecurve
          266 -476 -13 -75 rlineto
          -31 -5 -18 -17 -31 hhcurveto
          -44 hlineto
          -10 -57 rlineto
          hintmask 11011000
          -31 callsubr
        </CharString>
        <CharString name="Eogonek">
          -16 -182 65 117 -52 callgsubr
          hstem
          371 84 vstem
          459 -19 callgsubr
          -32 hlineto
          -30 -15 16 19 35 47 30 50 17 hvcurveto
          15 83 rlineto
          -439 hlineto
          40 226 rlineto
          389 21 callsubr
          -389 hlineto
          37 211 rlineto
          433 -60 callsubr
          -528 hlineto
          -121 -686 rlineto
          433 hlineto
          -51 -25 -29 -31 -52 vvcurveto
          -56 47 -18 41 vhcurveto
          endchar
        </CharString>
        <CharString name="Eth">
          -62 callgsubr
        </CharString>
        <CharString name="Euro">
          -12 73 182 65 70 65 182 73 -10 -20 hstemhm
          1 580 hintmask 11110100
          376 -12 rmoveto
          28 28 4 6 28 hvcurveto
          12 71 rlineto
          -5 -26 -26 -3 -27 hhcurveto
          -98 -113 40 142 -8 hvcurveto
          258 hlineto
          11 65 rlineto
          -268 hlineto
          1 19 6 33 6 18 rrcurveto
          268 hlineto
          11 65 rlineto
          -257 hlineto
          140 56 134 42 102 hhcurveto
          24 22 -3 -5 21 hvcurveto
          hintmask 11101100
          12 71 rlineto
          hintmask 11110100
          7 -28 -31 3 -31 hhcurveto
          -156 -154 -74 -181 -68 hvcurveto
          -77 hlineto
          -11 -65 rlineto
          69 hlineto
          -5 -20 -6 -32 -2 -18 rrcurveto
          -69 hlineto
          -11 -65 rlineto
          77 hlineto
          -185 5 133 -70 160 hhcurveto
          endchar
        </CharString>
        <CharString name="F">
          -72 21 -21 302 83 218 83 hstem
          18 607 vstem
          18 hmoveto
          95 hlineto
          53 302 rlineto
          355 -60 callsubr
          -355 hlineto
          38 218 rlineto
          391 -60 callsubr
          -486 hlineto
          endchar
        </CharString>
        <CharString name="G">
          -23 callgsubr
          -7 callgsubr
          hintmask 10111010
          726 452 rmoveto
          3 17 1 16 15 vvcurveto
          133 -116 65 -169 -128 -102 -44 -77 -70 vhcurveto
          -70 -78 -38 -112 -135 vvcurveto
          -169 98 -95 187 vhcurveto
          hintmask 10111100
          101 85 28 68 66 hvcurveto
          hintmask 01111100
          -84 72 vlineto
          63 357 rlineto
          -337 hlineto
          -15 -83 rlineto
          242 hlineto
          -1 -10 rlineto
          hintmask 10111100
          -105 -11 -98 -90 -161 hhcurveto
          -124 -68 54 138 45 5 42 9 37 hvcurveto
          147 37 106 85 158 hhcurveto
          hintmask 10111010
          110 71 -41 -91 -10 -1 -11 -2 -12 hvcurveto
          endchar
        </CharString>
        <CharString name="G_tilde.loclGUA">
          -23 callgsubr
          66 104 -7 callgsubr
          hintmask 10111101
          376 795 rmoveto
          -97 callsubr
          46 callgsubr
          hhcurveto
          350 -343 -100 callsubr
        </CharString>
        <CharString name="Gbreve">
          -23 callgsubr
          53 64 -7 callgsubr
          hintmask 10111101
          437 -76 callsubr
          289 -299 -100 callsubr
        </CharString>
        <CharString name="Gcaron">
          -23 callgsubr
          35 135 -7 callgsubr
          hintmask 10111101
          478 733 rmoveto
          129 135 rlineto
          -94 hlineto
          -70 -79 -45 79 rlineto
          -86 hlineto
          82 -135 rlineto
          332 -281 -100 callsubr
        </CharString>
        <CharString name="Gcircumflex">
          -23 callgsubr
          35 135 -7 callgsubr
          hintmask 10111101
          450 812 rmoveto
          -97 callgsubr
          -129 -135 rlineto
          94 hlineto
          348 -281 -100 callsubr
        </CharString>
        <CharString name="Gcommaaccent">
          95 -149 91 46 81 -48 -21 274 83 260 81 -7 callgsubr
          hintmask 11011101
          726 452 rmoveto
          3 17 1 16 15 vvcurveto
          133 -116 65 -169 -128 -102 -44 -77 -70 vhcurveto
          -70 -78 -38 -112 -135 vvcurveto
          -169 98 -95 187 vhcurveto
          hintmask 11011110
          101 85 28 68 66 hvcurveto
          hintmask 10111110
          -84 72 vlineto
          63 357 rlineto
          -337 hlineto
          -15 -83 rlineto
          242 hlineto
          -1 -10 rlineto
          hintmask 11011110
          -105 -11 -98 -90 -161 hhcurveto
          -124 -68 54 138 45 5 42 9 37 hvcurveto
          147 37 106 85 158 hhcurveto
          hintmask 11011101
          110 71 -41 -91 -10 -1 -11 -2 -12 hvcurveto
          -355 -601 rmoveto
          35 hlineto
          -52 -81 rlineto
          47 hlineto
          -28 callgsubr
          endchar
        </CharString>
        <CharString name="Gdotaccent">
          -23 callgsubr
          75 95 -7 callgsubr
          hintmask 10111101
          503 868 57 callgsubr
          240 -321 -100 callsubr
        </CharString>
        <CharString name="H">
          39 21 -14 callgsubr
          endchar
        </CharString>
        <CharString name="Hbar">
          39 21 -21 309 83 134 72 -72 160 hstemhm
          18 739 hintmask 11011000
          18 hmoveto
          95 hlineto
          55 309 rlineto
          374 hlineto
          -55 -309 rlineto
          95 hlineto
          93 526 rlineto
          70 hlineto
          hintmask 11101000
          12 72 rlineto
          -70 hlineto
          hintmask 11011000
          16 88 -37 callgsubr
          hintmask 11101000
          -16 -88 rlineto
          -374 hlineto
          hintmask 11011000
          16 88 -37 callgsubr
          hintmask 11101000
          -16 -88 rlineto
          -70 hlineto
          hintmask 11011000
          -12 -72 rlineto
          70 hlineto
          71 -134 rmoveto
          24 134 rlineto
          374 hlineto
          -24 -134 rlineto
          endchar
        </CharString>
        <CharString name="Hcircumflex">
          39 21 -21 309 83 294 -20 67 135 hstem
          18 685 vstem
          277 -76 callgsubr
          -388 -868 rmoveto
          -6 callgsubr
          endchar
        </CharString>
        <CharString name="I">
          -4 callgsubr
          hstem
          31 216 vstem
          65 callsubr
          endchar
        </CharString>
        <CharString name="IJ">
          95 -12 81 -48 42 callgsubr
          hstemhm
          275 95 hintmask 00000000
          hintmask 01110000
          65 callsubr
          hintmask 10110000
          299 -698 -81 callgsubr
        </CharString>
        <CharString name="Iacute">
          -405 10 callsubr
          31 344 vstem
          165 736 -94 callgsubr
          -242 -868 -57 callsubr
        </CharString>
        <CharString name="Iacute_J.loclNLD">
          95 -12 81 -48 42 callgsubr
          70 132 hstemhm
          275 95 hintmask 10111000
          165 736 -94 callgsubr
          406 -132 -94 callgsubr
          hintmask 01111000
          -756 -868 rmoveto
          -45 callgsubr
          hintmask 10111000
          299 -698 -81 callgsubr
        </CharString>
        <CharString name="Ibreve">
          -4 callgsubr
          85 64 hstem
          31 337 vstem
          209 -76 callsubr
          -178 -751 -57 callsubr
        </CharString>
        <CharString name="Icircumflex">
          -4 callgsubr
          67 135 hstem
          31 320 vstem
          56 -76 callgsubr
          -154 -868 -57 callsubr
        </CharString>
        <CharString name="Idieresis">
          -4 callgsubr
          107 95 hstem
          31 338 vstem
          78 -64 callsubr
          -251 -868 -57 callsubr
        </CharString>
        <CharString name="Idotaccent">
          -4 callgsubr
          107 95 hstem
          31 244 vstem
          171 2 callsubr
          -157 -868 -57 callsubr
        </CharString>
        <CharString name="Igrave">
          -405 10 callsubr
          31 216 vstem
          171 736 -78 callgsubr
          -55 -865 -57 callsubr
        </CharString>
        <CharString name="Imacron">
          -4 callgsubr
          106 72 hstem
          31 350 vstem
          63 772 -69 callsubr
          -45 -844 -57 callsubr
        </CharString>
        <CharString name="Iogonek">
          -405 -190 65 146 42 callgsubr
          hstem
          -45 85 vstem
          91 hmoveto
          35 -42 callsubr
          -120 -682 rlineto
          -37 -27 -40 -35 -58 -43 callsubr
          endchar
        </CharString>
        <CharString name="Itilde">
          -4 callgsubr
          98 104 hstem
          31 364 vstem
          50 764 -71 callgsubr
          -764 -57 callsubr
        </CharString>
        <CharString name="J">
          -183 -33 callgsubr
          hstem
          -3 95 vstem
          173 -12 -81 callgsubr
        </CharString>
        <CharString name="Jcircumflex">
          -183 -33 callgsubr
          67 135 hstem
          -3 95 vstem
          292 -76 callgsubr
          -248 -880 -81 callgsubr
        </CharString>
        <CharString name="K">
          -16 21 -14 callsubr
          endchar
        </CharString>
        <CharString name="Kcommaaccent">
          -16 -149 91 79 -14 callsubr
          63 -916 -70 callgsubr
        </CharString>
        <CharString name="L">
          0 83 603 -20 hstem
          18 479 vstem
          -30 callgsubr
          endchar
        </CharString>
        <CharString name="Lacute">
          0 83 603 59 callsubr
          18 479 vstem
          152 736 -94 callgsubr
          -242 -868 rmoveto
          -22 callsubr
          endchar
        </CharString>
        <CharString name="Lcaron">
          0 83 407 196 -91 91 hstemhm
          18 479 hintmask 10110000
          -30 callgsubr
          hintmask 11010000
          191 -196 rmoveto
          46 hlineto
          hintmask 10110000
          -11 callgsubr
          32 hlineto
          endchar
        </CharString>
        <CharString name="Lcommaaccent">
          -149 91 58 83 603 -20 hstem
          18 479 vstem
          -30 callgsubr
          25 -916 -70 callgsubr
        </CharString>
        <CharString name="Ldot">
          0 83 335 108 160 -20 hstem
          18 479 vstem
          -30 callgsubr
          177 -268 -46 callsubr
          endchar
        </CharString>
        <CharString name="Lslash">
          0 83 603 -20 hstem
          0 497 vstem
          35 hmoveto
          447 -60 callsubr
          -352 hlineto
          43 244 186 111 15 82 -187 -111 49 277 -37 callgsubr
          -60 -340 -82 -49 -14 -81 82 49 rlineto
          endchar
        </CharString>
        <CharString name="M">
          150 0 115 -94 -21 581 105 hstemhm
          18 797 hintmask 01110000
          18 hmoveto
          89 hlineto
          80 453 rlineto
          5 28 15 100 0 vvcurveto
          6 hlineto
          0 2 -44 4 -22 vhcurveto
          93 -515 rlineto
          80 hlineto
          276 515 rlineto
          14 26 14 40 0 vvcurveto
          7 hlineto
          -24 -128 -80 -453 rlineto
          95 37 callsubr
          -147 hlineto
          -248 -468 rlineto
          hintmask 10110000
          -19 -35 -25 -68 0 vvcurveto
          -4 hlineto
          0 -1 61 -8 42 vhcurveto
          -85 468 rlineto
          -139 hlineto
          endchar
        </CharString>
        <CharString name="N">
          39 21 53 callsubr
          18 686 hintmask 10110000
          18 hmoveto
          89 hlineto
          hintmask 11010000
          -87 callgsubr
          endchar
        </CharString>
        <CharString name="NULL">
          -683 endchar
        </CharString>
        <CharString name="Nacute">
          39 21 -46 callgsubr
          70 132 45 callgsubr
          404 736 -94 callgsubr
          -494 -868 rmoveto
          89 hlineto
          hintmask 11011000
          -87 callgsubr
          endchar
        </CharString>
        <CharString name="Nacute.loclPLK">
          39 21 -46 callgsubr
          70 132 45 callgsubr
          398 736 -53 callsubr
          -426 -868 rmoveto
          89 hlineto
          hintmask 11011000
          -87 callgsubr
          endchar
        </CharString>
        <CharString name="Ncaron">
          39 21 -46 callgsubr
          67 135 45 callgsubr
          405 733 -93 callsubr
          -305 -868 rmoveto
          89 hlineto
          hintmask 11011000
          -87 callgsubr
          endchar
        </CharString>
        <CharString name="Ncommaaccent">
          39 -149 91 79 53 callsubr
          18 686 hintmask 11011000
          18 hmoveto
          89 hlineto
          hintmask 11101000
          -87 callgsubr
          90 -916 -70 callgsubr
        </CharString>
        <CharString name="Ntilde">
          39 21 -46 callgsubr
          98 104 45 callgsubr
          289 764 rmoveto
          64 hlineto
          23 6 13 8 15 -97 callsubr
          -271 -764 rmoveto
          89 hlineto
          hintmask 11011000
          -87 callgsubr
          endchar
        </CharString>
        <CharString name="O">
          -48 callgsubr
          -49 callgsubr
          334 -11 -107 callgsubr
          endchar
        </CharString>
        <CharString name="OE">
          317 -12 81 -69 80 231 80 215 80 -69 81 hstemhm
          38 98 hintmask 00000000
          hintmask 10110100
          270 -12 rmoveto
          75 64 29 59 52 hvcurveto
          hintmask 01110100
          -13 -76 rlineto
          438 hlineto
          14 80 rlineto
          -343 hlineto
          41 231 rlineto
          281 hlineto
          14 80 rlineto
          -281 hlineto
          38 215 rlineto
          336 hlineto
          14 80 rlineto
          -431 hlineto
          hintmask 01101100
          -13 -76 rlineto
          58 -37 -60 30 -84 hhcurveto
          -167 -119 -117 -238 -40 hvcurveto
          -7 -42 -4 -38 -34 vvcurveto
          hintmask 10110100
          -162 84 -79 148 vhcurveto
          17 81 rmoveto
          -98 -53 46 119 31 4 36 7 42 hvcurveto
          hintmask 01101100
          196 34 76 78 118 hhcurveto
          90 55 -42 -123 -31 -4 -36 -7 -42 hvcurveto
          hintmask 10110100
          -201 -36 -79 -73 -107 hhcurveto
          endchar
        </CharString>
        <CharString name="Oacute">
          -48 callgsubr
          37 132 -49 callgsubr
          402 736 -94 callgsubr
          -176 -879 -107 callgsubr
          endchar
        </CharString>
        <CharString name="Oacute.loclPLK">
          -48 callgsubr
          37 132 -49 callgsubr
          396 736 -53 callsubr
          -108 -879 -107 callgsubr
          endchar
        </CharString>
        <CharString name="Obreve">
          -48 callgsubr
          52 64 -49 callgsubr
          446 -76 callsubr
          -112 -762 -107 callgsubr
          endchar
        </CharString>
        <CharString name="Ocircumflex">
          44 callgsubr
          -49 callgsubr
          293 -76 callgsubr
          -88 -879 -107 callgsubr
          endchar
        </CharString>
        <CharString name="Odieresis">
          -48 callgsubr
          74 95 -49 callgsubr
          315 -64 callsubr
          -185 -879 -107 callgsubr
          endchar
        </CharString>
        <CharString name="Ograve">
          -48 callgsubr
          37 132 -49 callgsubr
          408 736 -78 callgsubr
          11 -876 -107 callgsubr
          endchar
        </CharString>
        <CharString name="Ohorn">
          -48 callgsubr
          21 108 hstemhm
          37 98 507 98 hintmask 00000000
          hintmask 11111000
          723 828 -61 callgsubr
          hintmask 11011000
          -83 callgsubr
          hintmask 11111000
          -74 callgsubr
          hintmask 11011000
          189 33 99 91 170 hhcurveto
          124 74 -68 -116 hvcurveto
          hintmask 11111000
          -29 -2 -27 -5 -26 vhcurveto
          endchar
        </CharString>
        <CharString name="Ohungarumlaut">
          -48 callgsubr
          37 132 -49 callgsubr
          334 736 -54 callgsubr
          -228 -879 -107 callgsubr
          endchar
        </CharString>
        <CharString name="Omacron">
          -48 callgsubr
          73 72 -49 callgsubr
          300 772 -69 callsubr
          21 -855 -107 callgsubr
          endchar
        </CharString>
        <CharString name="Oslash">
          95 16 callgsubr
          37 -20 hstem
          38 99 505 98 vstem
          8 -49 0 callsubr
          -57 callgsubr
        </CharString>
        <CharString name="Oslashacute">
          95 16 callgsubr
          37 -20 21 132 hstemhm
          38 99 505 98 hintmask 00000000
          hintmask 11011100
          432 736 -94 callgsubr
          -532 -917 0 callsubr
          hintmask 11101100
          -57 callgsubr
        </CharString>
        <CharString name="Otilde">
          -48 callgsubr
          65 104 -49 callgsubr
          287 764 rmoveto
          64 hlineto
          23 6 13 8 15 -97 callsubr
          47 -775 -107 callgsubr
          endchar
        </CharString>
        <CharString name="P">
          -16 21 -21 263 83 257 83 hstem
          556 97 vstem
          18 hmoveto
          95 hlineto
          46 263 39 callsubr
          -324 hlineto
          35 -340 rmoveto
          36 callgsubr
        </CharString>
        <CharString name="Q">
          95 -12 81 -57 -21 626 81 hstemhm
          38 99 505 98 hintmask 10111000
          486 -130 rmoveto
          121 hlineto
          hintmask 01111000
          -123 143 rlineto
          156 57 100 154 212 vvcurveto
          175 -109 87 -190 -99 -86 -30 -54 -66 vhcurveto
          -96 -78 -56 -127 -161 vvcurveto
          hintmask 10111000
          -174 109 -86 189 16 18 1 2 16 vhcurveto
          -56 78 rmoveto
          -121 -72 54 135 45 5 41 10 38 hvcurveto
          148 38 109 87 148 hhcurveto
          122 73 -54 -137 -50 -6 -45 -12 -40 hvcurveto
          -141 -42 -109 -81 -143 hhcurveto
          endchar
        </CharString>
        <CharString name="R">
          39 21 -38 callgsubr
          endchar
        </CharString>
        <CharString name="Racute">
          27 callsubr
          50 132 hstem
          581 98 vstem
          358 736 -94 callgsubr
          -448 -868 rmoveto
          -85 callsubr
          endchar
        </CharString>
        <CharString name="Rcaron">
          27 callsubr
          47 135 hstem
          581 98 vstem
          359 733 -93 callsubr
          -259 -868 rmoveto
          -85 callsubr
          endchar
        </CharString>
        <CharString name="Rcommaaccent">
          39 -149 91 79 -38 callgsubr
          -206 -596 -70 callgsubr
        </CharString>
        <CharString name="S">
          -16 16 callgsubr
          -16 callgsubr
          hintmask 00000000
          hintmask 11101000
          289 -12 rmoveto
          153 151 62 159 hvcurveto
          hintmask 11011000
          221 -401 -67 148 vvcurveto
          73 86 33 106 vhcurveto
          hintmask 11010100
          88 61 -33 -60 -5 0 -11 -4 -15 hvcurveto
          93 hlineto
          4 20 1 17 12 vvcurveto
          110 -108 46 -144 -143 -139 -63 -135 vhcurveto
          hintmask 11011000
          -221 400 72 -156 vvcurveto
          -81 -85 -45 -130 vhcurveto
          hintmask 11101000
          -98 -67 33 69 15 5 18 3 10 hvcurveto
          -94 hlineto
          -5 -15 -3 -26 -18 vvcurveto
          -122 119 -45 151 vhcurveto
          endchar
        </CharString>
        <CharString name="Sacute">
          -16 16 callgsubr
          38 132 -16 callgsubr
          hintmask 11101100
          347 736 -94 callgsubr
          hintmask 11110100
          -166 -880 -99 callsubr
          endchar
        </CharString>
        <CharString name="Sacute.loclPLK">
          -16 16 callgsubr
          38 132 -16 callgsubr
          hintmask 11101100
          341 736 -53 callsubr
          hintmask 11110100
          -98 -880 -99 callsubr
          endchar
        </CharString>
        <CharString name="Scaron">
          -16 16 callgsubr
          35 135 -16 callgsubr
          hintmask 11101100
          348 733 -93 callsubr
          hintmask 11110100
          23 -880 -99 callsubr
          endchar
        </CharString>
        <CharString name="Scedilla">
          -16 48 callsubr
          25 80 548 81 hstemhm
          19 94 -20 99 122 73 106 100 -60 94 hintmask 1001101110000000
          263 -182 rmoveto
          58 66 14 74 hvcurveto
          hintmask 1011101110000000
          41 -37 17 -45 vhcurveto
          9 25 rlineto
          144 6 135 63 151 221 -401 -67 148 vvcurveto
          73 86 33 106 vhcurveto
          hintmask 1001101101000000
          88 61 -33 -60 -5 0 -11 -4 -15 hvcurveto
          93 hlineto
          4 20 1 17 12 vvcurveto
          110 -108 46 -144 -143 -139 -63 -135 vhcurveto
          hintmask 1001101110000000
          -221 400 72 -156 vvcurveto
          -81 -85 -45 -130 vhcurveto
          hintmask 1001110110000000
          -98 -67 33 69 15 5 18 3 10 hvcurveto
          -94 hlineto
          -5 -15 -3 -26 -18 vvcurveto
          -112 100 -47 133 -7 vhcurveto
          hintmask 1011101110000000
          -24 -66 -42 callgsubr
          hintmask 0101101110000000
          -9 -49 rlineto
          hintmask 1001101110000000
          -5 28 39 -3 36 hhcurveto
          endchar
        </CharString>
        <CharString name="Scircumflex">
          -16 16 callgsubr
          35 135 -16 callgsubr
          hintmask 11101100
          238 -76 callgsubr
          hintmask 11110100
          -78 -880 -99 callsubr
          endchar
        </CharString>
        <CharString name="Scommaaccent">
          -16 -149 91 46 81 548 81 -16 callgsubr
          hintmask 00000000
          hintmask 11110100
          289 -12 -99 callsubr
          -87 24 callsubr
        </CharString>
        <CharString name="T">
          -72 21 -32 callgsubr
          endchar
        </CharString>
        <CharString name="Tbar">
          -72 21 -21 381 72 150 83 67 callsubr
          197 hmoveto
          95 hlineto
          67 381 rlineto
          105 hlineto
          13 72 rlineto
          -105 hlineto
          26 150 -26 callgsubr
          -26 -150 rlineto
          -105 hlineto
          -13 -72 rlineto
          105 hlineto
          endchar
        </CharString>
        <CharString name="Tcaron">
          -72 21 -21 603 83 47 135 67 callsubr
          330 733 -93 callsubr
          -51 -868 rmoveto
          -10 callsubr
          endchar
        </CharString>
        <CharString name="Thorn">
          -16 21 -21 144 83 257 83 -83 202 hstemhm
          535 97 hintmask 11101000
          18 hmoveto
          95 hlineto
          25 144 39 callsubr
          -229 hlineto
          hintmask 11011000
          21 119 -37 callgsubr
          14 -459 rmoveto
          hintmask 11101000
          36 callgsubr
        </CharString>
        <CharString name="U">
          -49 callsubr
          23 callgsubr
          318 -12 -105 callgsubr
          endchar
        </CharString>
        <CharString name="Uacute">
          -49 callsubr
          70 132 23 callgsubr
          387 736 -94 callgsubr
          -177 -880 -105 callgsubr
          endchar
        </CharString>
        <CharString name="Ubreve">
          -49 callsubr
          85 64 23 callgsubr
          431 -76 callsubr
          -113 -763 -105 callgsubr
          endchar
        </CharString>
        <CharString name="Ucircumflex">
          -49 callsubr
          67 135 23 callgsubr
          278 -76 callgsubr
          -89 -880 -105 callgsubr
          endchar
        </CharString>
        <CharString name="Udieresis">
          -49 callsubr
          107 95 23 callgsubr
          300 -64 callsubr
          -186 -880 -105 callgsubr
          endchar
        </CharString>
        <CharString name="Ugrave">
          -49 callsubr
          70 132 23 callgsubr
          393 736 -78 callgsubr
          10 -877 -105 callgsubr
          endchar
        </CharString>
        <CharString name="Uhorn">
          -49 callsubr
          94 108 23 callgsubr
          -88 callsubr
          endchar
        </CharString>
        <CharString name="Uhungarumlaut">
          -49 callsubr
          70 132 23 callgsubr
          319 736 -54 callgsubr
          -229 -880 -105 callgsubr
          endchar
        </CharString>
        <CharString name="Umacron">
          -49 callsubr
          106 72 23 callgsubr
          285 772 -69 callsubr
          20 -856 -105 callgsubr
          endchar
        </CharString>
        <CharString name="Uogonek">
          39 -182 65 106 80 617 -20 hstem
          60 95 87 85 vstem
          330 -19 callgsubr
          -32 hlineto
          -33 -11 19 22 25 14 24 17 17 hvcurveto
          144 12 96 81 30 170 76 433 rcurveline
          -95 -104 callsubr
          -129 82 -72 148 -8 vhcurveto
          -26 -24 -22 -30 -43 vvcurveto
          -56 46 -18 42 vhcurveto
          endchar
        </CharString>
        <CharString name="Uring">
          -49 callsubr
          45 45 102 45 hstemhm
          60 95 187 66 callgsubr
          426 711 -61 callsubr
          -114 -768 rmoveto
          167 110 80 185 33 hvcurveto
          hintmask 11011110
          76 433 rlineto
          -95 -104 callsubr
          hintmask 11111110
          -137 93 -73 165 vhcurveto
          endchar
        </CharString>
        <CharString name="Utilde">
          -49 callsubr
          98 104 23 callgsubr
          272 764 rmoveto
          64 hlineto
          23 6 13 8 15 -97 callsubr
          46 -776 -105 callgsubr
          endchar
        </CharString>
        <CharString name="V">
          -16 0 95 591 -20 hstem
          76 635 vstem
          210 hmoveto
          125 hlineto
          376 -17 callgsubr
          -101 hlineto
          -275 -511 -14 -27 -15 -26 -14 -27 rlinecurve
          -5 hlineto
          -5 29 -6 28 -5 29 -95 505 rcurveline
          -100 hlineto
          endchar
        </CharString>
        <CharString name="W">
          33 callsubr
          19 callgsubr
          148 hmoveto
          -88 callgsubr
        </CharString>
        <CharString name="Wacute">
          33 callsubr
          50 132 19 callgsubr
          497 736 -94 callgsubr
          -457 -868 rmoveto
          -88 callgsubr
        </CharString>
        <CharString name="Wcircumflex">
          33 callsubr
          47 135 19 callgsubr
          388 -76 callgsubr
          -369 -868 rmoveto
          -88 callgsubr
        </CharString>
        <CharString name="Wdieresis">
          33 callsubr
          87 95 19 callgsubr
          410 -64 callsubr
          -466 -868 rmoveto
          -88 callgsubr
        </CharString>
        <CharString name="Wgrave">
          33 callsubr
          50 132 19 callgsubr
          503 736 -78 callgsubr
          -270 -865 rmoveto
          -88 callgsubr
        </CharString>
        <CharString name="X">
          50 callgsubr
          hstem
          -55 750 vstem
          -55 hmoveto
          116 hlineto
          261 285 rlineto
          6 hlineto
          162 -285 rlineto
          111 hlineto
          -209 357 303 329 rlineto
          -117 hlineto
          -227 -253 rlineto
          -5 hlineto
          -146 253 rlineto
          -111 hlineto
          189 -324 rlineto
          endchar
        </CharString>
        <CharString name="Y">
          50 callgsubr
          hstem
          76 636 vstem
          226 hmoveto
          -81 callsubr
          endchar
        </CharString>
        <CharString name="Y.loclGUA">
          -9 callsubr
          hstemhm
          45 98 -57 97 hintmask 00000000
          hintmask 11110000
          272 -12 rmoveto
          166 102 72 183 31 hvcurveto
          36 200 43 243 -37 callgsubr
          -39 -218 rlineto
          -131 -23 -83 -68 -109 hhcurveto
          hintmask 11101000
          -77 -41 34 67 11 1 13 3 14 hvcurveto
          49 278 -37 callgsubr
          -49 -273 rlineto
          -4 -22 -2 -21 -18 vvcurveto
          -114 69 -50 117 89 70 30 65 47 vhcurveto
          6 hlineto
          -8 -45 rlineto
          -119 -21 -67 -50 -106 hhcurveto
          hintmask 11110000
          -97 -42 32 67 hvcurveto
          -98 -10 hlineto
          -118 93 -52 134 vhcurveto
          endchar
        </CharString>
        <CharString name="Yacute">
          -16 10 callsubr
          76 636 vstem
          357 736 -94 callgsubr
          -239 -868 rmoveto
          -81 callsubr
          endchar
        </CharString>
        <CharString name="Yacute.loclGUA">
          -9 callsubr
          70 132 18 callsubr
          377 736 -94 callgsubr
          hintmask 11111000
          -213 -880 -98 callsubr
        </CharString>
        <CharString name="Ycircumflex">
          50 callgsubr
          67 135 hstem
          76 636 vstem
          248 -76 callgsubr
          -151 -868 rmoveto
          -81 callsubr
          endchar
        </CharString>
        <CharString name="Ycircumflex.loclGUA">
          -9 callsubr
          67 135 18 callsubr
          -7 callsubr
          hintmask 11111000
          -125 -880 -98 callsubr
        </CharString>
        <CharString name="Ydieresis">
          50 callgsubr
          107 95 hstem
          76 636 vstem
          270 -64 callsubr
          -248 -868 rmoveto
          -81 callsubr
          endchar
        </CharString>
        <CharString name="Ydieresis.loclGUA">
          -9 callsubr
          107 95 18 callsubr
          290 -64 callsubr
          hintmask 11111000
          -222 -880 -98 callsubr
        </CharString>
        <CharString name="Ygrave">
          -16 10 callsubr
          76 636 vstem
          363 736 -78 callgsubr
          -52 -865 rmoveto
          -81 callsubr
          endchar
        </CharString>
        <CharString name="Ygrave.loclGUA">
          -9 callsubr
          70 132 18 callsubr
          383 736 -78 callgsubr
          hintmask 11111000
          -26 -877 -98 callsubr
        </CharString>
        <CharString name="Z">
          -72 0 83 520 83 hstem
          -37 677 vstem
          -37 hmoveto
          -78 callsubr
          endchar
        </CharString>
        <CharString name="Zacute">
          52 callsubr
          349 736 -94 callgsubr
          -494 -868 rmoveto
          -78 callsubr
          endchar
        </CharString>
        <CharString name="Zacute.loclPLK">
          52 callsubr
          343 736 -53 callsubr
          -426 -868 rmoveto
          -78 callsubr
          endchar
        </CharString>
        <CharString name="Zcaron">
          -72 0 83 520 83 47 135 hstem
          -37 677 vstem
          350 733 -93 callsubr
          -305 -868 rmoveto
          -78 callsubr
          endchar
        </CharString>
        <CharString name="Zdotaccent">
          -72 0 83 520 83 87 95 hstem
          -37 677 vstem
          355 2 callsubr
          -409 -868 rmoveto
          -78 callsubr
          endchar
        </CharString>
        <CharString name="a">
          -58 callgsubr
          -48 callsubr
          hintmask 11011000
          440 88 rmoveto
          hintmask 10111000
          -66 callgsubr
          hintmask 11011000
          -106 callsubr
          -44 callgsubr
          -80 callgsubr
        </CharString>
        <CharString name="aacute">
          -58 callgsubr
          85 132 36 callsubr
          483 720 -38 callsubr
          81 -503 rmoveto
          hintmask 10111100
          -66 callgsubr
          hintmask 11011100
          -106 callsubr
          -44 callgsubr
          -80 callgsubr
        </CharString>
        <CharString name="abreve">
          -58 callgsubr
          100 55 callgsubr
          -48 callsubr
          hintmask 11001100
          317 606 -84 callgsubr
          hintmask 11010100
          -51 callgsubr
          hintmask 11001100
          -90 callsubr
          hintmask 10101110
          -2 callgsubr
          hintmask 11001110
          -106 callsubr
          hintmask 10101110
          -44 callgsubr
          hintmask 11001100
          -80 callgsubr
        </CharString>
        <CharString name="acircumflex">
          -58 callgsubr
          82 135 -56 56 -48 callsubr
          hintmask 00000000
          hintmask 11001100
          330 667 rmoveto
          hintmask 10110110
          -97 callgsubr
          -129 -135 rlineto
          94 hlineto
          182 -500 rmoveto
          -66 callgsubr
          hintmask 11010110
          -106 callsubr
          hintmask 10110110
          -44 callgsubr
          hintmask 11010100
          -80 callgsubr
        </CharString>
        <CharString name="acute">
          49 callgsubr
          63 210 vstem
          63 591 -94 callgsubr
          endchar
        </CharString>
        <CharString name="acute.loclPLK">
          49 callgsubr
          164 143 vstem
          164 591 -53 callsubr
          endchar
        </CharString>
        <CharString name="adieresis">
          -58 callgsubr
          122 95 36 callsubr
          290 723 57 callgsubr
          204 95 57 callgsubr
          -20 -540 rmoveto
          hintmask 10111100
          -66 callgsubr
          hintmask 11011100
          -106 callsubr
          -44 callgsubr
          -80 callgsubr
        </CharString>
        <CharString name="ae">
          206 -60 callgsubr
          65 callgsubr
          hintmask 11110110
          166 -12 -39 callsubr
          hintmask 11101110
          2 callgsubr
          hintmask 11110110
          -27 callgsubr
        </CharString>
        <CharString name="aeacute">
          206 -60 callgsubr
          53 132 65 callgsubr
          hintmask 11111011
          459 591 -94 callgsubr
          -401 -735 -39 callsubr
          hintmask 11110111
          2 callgsubr
          hintmask 11111011
          -27 callgsubr
        </CharString>
        <CharString name="agrave">
          -58 callgsubr
          85 132 36 callsubr
          354 591 18 callgsubr
          161 -503 rmoveto
          hintmask 10111100
          -66 callgsubr
          hintmask 11011100
          -106 callsubr
          -44 callgsubr
          -80 callgsubr
        </CharString>
        <CharString name="amacron">
          -58 callgsubr
          121 72 36 callsubr
          489 699 rmoveto
          -305 hlineto
          -13 -72 rlineto
          305 hlineto
          -36 -539 rmoveto
          hintmask 10111100
          -66 callgsubr
          hintmask 11011100
          -106 callsubr
          -44 callgsubr
          -80 callgsubr
        </CharString>
        <CharString name="ampersand">
          -16 -12 75 248 74 238 75 hstemhm
          11 93 -20 90 330 91 hintmask 00000000
          hintmask 11110100
          248 -12 rmoveto
          166 98 73 133 24 hvcurveto
          21 117 rlineto
          85 hlineto
          13 74 rlineto
          -173 hlineto
          -34 -194 rlineto
          -85 -15 -65 -43 -114 hhcurveto
          -91 -59 32 77 112 99 28 85 hvcurveto
          59 29 callsubr
          -61 hlineto
          hintmask 11101100
          -69 -56 32 65 102 96 39 94 83 57 -30 -68 -8 0 -8 -3 -17 hvcurveto
          88 hlineto
          5 23 1 16 9 vvcurveto
          97 -92 61 -140 -155 -124 -78 -142 -61 35 -36 48 -25 vhcurveto
          -1 -4 rlineto
          hintmask 11110100
          -78 -21 -77 -67 -104 vvcurveto
          -108 94 -64 143 vhcurveto
          endchar
        </CharString>
        <CharString name="ampersand.alt">
          -16 -13 73 -60 117 -96 -21 626 73 hstemhm
          24 88 75 87 165 89 hintmask 10011110
          624 344 rmoveto
          -82 hlineto
          -17 -63 -26 -56 -35 -45 -125 183 rcurveline
          102 35 87 61 111 vvcurveto
          87 -74 42 -77 -92 -98 -63 -122 -35 8 -38 21 -41 vhcurveto
          -105 -37 -87 -86 -120 vvcurveto
          -105 81 -65 115 84 73 25 44 62 vhcurveto
          hintmask 00111110
          37 -56 rlineto
          110 hlineto
          hintmask 01011110
          -79 117 rlineto
          hintmask 10011110
          54 61 40 78 23 88 rrcurveto
          -256 282 rmoveto
          41 30 -25 -48 -76 -67 -33 -72 -22 hvcurveto
          -17 28 -9 35 35 vvcurveto
          71 45 35 49 vhcurveto
          -130 -566 rmoveto
          -81 -45 35 74 82 63 59 81 27 hvcurveto
          145 -221 rlineto
          -36 -47 -55 -20 -61 hhcurveto
          endchar
        </CharString>
        <CharString name="aogonek">
          -182 65 105 73 -44 -21 469 73 -12 -20 hstemhm
          21 92 200 85 -42 79 hintmask 11010101
          435 88 rmoveto
          hintmask 11001101
          14 84 424 0 vhcurveto
          -67 hlineto
          hintmask 11010101
          -31 -60 rlineto
          -6 hlineto
          51 -25 -45 21 -72 hhcurveto
          -142 -110 -140 -219 -129 65 -62 100 65 65 32 63 36 hvcurveto
          5 hlineto
          hintmask 10110101
          -1 -9 0 -7 -8 vvcurveto
          -34 13 -20 21 -9 vhcurveto
          hintmask 11010110
          -45 -24 -32 -31 -49 vvcurveto
          -56 46 -18 42 20 21 5 9 23 vhcurveto
          59 callgsubr
          -36 -8 19 22 50 67 21 30 9 hvcurveto
          hintmask 11010101
          10 57 rlineto
          -40 hlineto
          -44 callgsubr
          -227 -27 rmoveto
          -66 -29 43 80 150 57 131 115 76 31 -44 -80 -78 -49 -202 -135 hvcurveto
          endchar
        </CharString>
        <CharString name="approxequal">
          -134 69 92 -32 92 62 92 -32 92 hstemhm
          3 542 hintmask 01011000
          41 271 rmoveto
          0 70 72 80 vhcurveto
          hintmask 01101000
          3 callgsubr
          -54 -306 rmoveto
          0 70 72 80 vhcurveto
          hintmask 10011000
          3 callgsubr
          endchar
        </CharString>
        <CharString name="aring">
          -58 callgsubr
          60 45 102 45 56 callgsubr
          hintmask 1101111010000000
          312 566 rmoveto
          71 40 47 65 45 -35 35 -49 -71 -40 -48 -65 -45 35 -34 49 hvcurveto
          21 147 rmoveto
          28 16 -19 -23 -32 -21 -28 -38 -29 -15 18 23 32 21 29 38 hvcurveto
          hintmask 1010111100000000
          107 -625 rmoveto
          -66 callgsubr
          hintmask 1100111100000000
          -106 callsubr
          hintmask 1010111100000000
          -44 callgsubr
          hintmask 1100111010000000
          -80 callgsubr
        </CharString>
        <CharString name="aringacute">
          -58 callgsubr
          60 45 102 45 23 132 56 callgsubr
          hintmask 1101111101000000
          512 910 -38 callsubr
          -76 -215 rmoveto
          71 40 47 65 hvcurveto
          hintmask 1100101101000000
          45 -35 35 -49 -71 -40 -48 -65 vhcurveto
          hintmask 1101111101000000
          -45 35 -34 49 vhcurveto
          hintmask 1101101101000000
          21 147 rmoveto
          28 16 -19 -23 -32 -21 -28 -38 -29 -15 18 23 32 21 29 38 hvcurveto
          hintmask 1010101110000000
          107 -625 rmoveto
          -66 callgsubr
          hintmask 1100101110000000
          -106 callsubr
          hintmask 1010101110000000
          -44 callgsubr
          hintmask 1100101101000000
          -80 callgsubr
        </CharString>
        <CharString name="arrowboth">
          317 216 73 hstem
          40 920 vstem
          208 79 rmoveto
          42 hlineto
          -29 137 rlineto
          550 hlineto
          -82 -137 rlineto
          30 callgsubr
          -550 hlineto
          77 137 rlineto
          -52 hlineto
          -216 -163 -3 -21 rlineto
          endchar
        </CharString>
        <CharString name="arrowdown">
          -183 10 -21 hstem
          25 355 vstem
          154 -208 rmoveto
          21 hlineto
          196 189 9 50 -148 -58 130 737 rlineto
          -73 hlineto
          -130 -737 -126 58 -8 -42 rlineto
          endchar
        </CharString>
        <CharString name="arrowleft">
          317 216 73 hstem
          33 926 vstem
          201 79 rmoveto
          42 hlineto
          -34 137 rlineto
          737 29 callsubr
          -737 hlineto
          82 137 rlineto
          -50 hlineto
          -218 -163 -3 -21 rlineto
          endchar
        </CharString>
        <CharString name="arrowright">
          317 216 73 hstem
          34 926 vstem
          689 79 rmoveto
          30 callgsubr
          -737 hlineto
          -13 -73 rlineto
          737 hlineto
          endchar
        </CharString>
        <CharString name="arrowup">
          -183 -208 918 hstem
          105 355 vstem
          123 -208 rmoveto
          73 hlineto
          130 737 126 -58 8 42 -129 197 rlineto
          -21 hlineto
          -196 -189 -9 -50 148 58 rlineto
          endchar
        </CharString>
        <CharString name="arrowupdn">
          -183 12 -21 hstem
          29 440 vstem
          158 -206 60 callsubr
          97 550 25 callgsubr
          -97 -550 -127 58 -8 -42 rlineto
          endchar
        </CharString>
        <CharString name="arrowupdnbse">
          -183 -233 48 hstem
          -14 480 vstem
          167 -136 60 callsubr
          85 480 25 callgsubr
          -85 -480 -127 58 -8 -42 rlineto
          -52 -294 rmoveto
          349 hlineto
          9 48 rlineto
          -349 hlineto
          endchar
        </CharString>
        <CharString name="asciicircum">
          -214 609 77 0 -20 hstemhm
          23 419 hintmask 01100000
          23 294 rmoveto
          91 hlineto
          hintmask 10100000
          174 315 66 -315 rlineto
          88 hlineto
          -88 392 rlineto
          -107 hlineto
          endchar
        </CharString>
        <CharString name="asciitilde">
          -99 223 93 -32 93 hstemhm
          25 533 hintmask 01100000
          25 211 rmoveto
          0 73 73 85 vhcurveto
          hintmask 10100000
          78 47 -61 76 hhcurveto
          97 61 73 0 hvcurveto
          16 93 rlineto
          0 -73 -73 -85 vhcurveto
          hintmask 01100000
          -78 -47 61 -76 hhcurveto
          -97 -61 -73 0 hvcurveto
          endchar
        </CharString>
        <CharString name="asterisk">
          -294 686 -20 hstemhm
          202 47 -30 47 hintmask 00000000
          hintmask 11000000
          164 362 rmoveto
          83 hlineto
          4 119 83 -74 53 71 -103 46 120 47 -29 70 rlineto
          hintmask 10100000
          -109 -73 38 118 rlineto
          -83 hlineto
          -4 -119 -83 74 -53 -70 104 -47 -121 -46 29 -71 rlineto
          hintmask 11000000
          109 74 rlineto
          endchar
        </CharString>
        <CharString name="at">
          332 -153 58 117 66 365 68 119 58 hstem
          53 68 164 87 221 76 227 67 vstem
          568 698 rmoveto
          -310 -205 -156 -350 -200 99 -145 303 80 58 9 5 33 hvcurveto
          11 62 rlineto
          0 -77 -18 -105 -258 -76 124 170 301 183 140 264 214 114 -100 -161 -147 -71 -144 -119 -25 -12 7 18 19 76 378 0 vhcurveto
          -65 hlineto
          -28 -54 rlineto
          -6 hlineto
          46 -22 -41 19 -65 hhcurveto
          -131 -102 -127 -199 -117 61 -56 93 59 59 29 57 32 hvcurveto
          5 hlineto
          -1 -7 0 -6 -5 vvcurveto
          -52 49 -16 43 202 76 198 159 197 -138 122 -257 vhcurveto
          -109 -608 rmoveto
          -60 -27 37 73 136 52 117 105 68 29 -38 -73 -71 -45 -181 -122 hvcurveto
          endchar
        </CharString>
        <CharString name="atilde">
          -58 callgsubr
          113 73 -42 73 -48 callsubr
          hintmask 11001100
          256 650 rmoveto
          50 37 -31 56 hhcurveto
          60 34 48 56 10 hvcurveto
          -65 hlineto
          hintmask 11010100
          -3 callgsubr
          hintmask 11001100
          61 callgsubr
          hintmask 10101110
          184 -562 rmoveto
          -66 callgsubr
          hintmask 11001110
          -106 callsubr
          hintmask 10101110
          -44 callgsubr
          hintmask 11001100
          -80 callgsubr
        </CharString>
        <CharString name="b">
          -12 73 -40 49 callsubr
          hstemhm
          427 91 hintmask 10111000
          267 -12 rmoveto
          149 102 144 215 132 -64 59 -102 -70 -52 -27 -45 -41 hvcurveto
          -6 hlineto
          45 257 -72 callsubr
          hintmask 01111000
          -127 -723 rlineto
          66 hlineto
          hintmask 10111000
          23 71 rlineto
          6 hlineto
          -55 28 58 -28 73 hhcurveto
          -19 73 rmoveto
          -76 -32 47 86 135 60 136 119 74 34 -33 -88 -155 -58 -128 -121 hvcurveto
          endchar
        </CharString>
        <CharString name="backslash">
          -405 735 -20 hstem
          70 137 vstem
          136 -49 rmoveto
          71 hlineto
          -67 784 rlineto
          -70 hlineto
          endchar
        </CharString>
        <CharString name="bar">
          56 callsubr
          -173 rmoveto
          78 896 -78 hlineto
          endchar
        </CharString>
        <CharString name="braceleft">
          53 callgsubr
          66 78 -38 71 hintmask 10111000
          213 -159 rmoveto
          10 57 rlineto
          -37 -42 10 47 hvcurveto
          hintmask 11110100
          38 33 169 45 vvcurveto
          48 -19 28 -53 vhcurveto
          2 10 rlineto
          hintmask 10110100
          64 25 31 77 18 hvcurveto
          6 27 31 144 7 35 rrcurveto
          59 11 51 12 40 hhcurveto
          10 57 rlineto
          -99 -74 -22 -126 -22 hvcurveto
          -35 -197 rlineto
          -45 -8 -45 -15 -39 hhcurveto
          hintmask 11110100
          -15 -84 rlineto
          35 38 -11 -39 hvcurveto
          hintmask 10111000
          -38 -40 -159 -51 vvcurveto
          -90 68 -17 79 vhcurveto
          endchar
        </CharString>
        <CharString name="braceright">
          53 callgsubr
          136 71 -38 78 hintmask 11010100
          -57 -159 rmoveto
          hintmask 11011000
          99 74 22 126 22 hvcurveto
          35 197 rlineto
          45 8 45 15 39 hhcurveto
          hintmask 11111000
          15 84 rlineto
          -35 -38 11 39 hvcurveto
          hintmask 11010100
          38 40 159 51 vvcurveto
          90 -68 17 -79 vhcurveto
          -10 -57 rlineto
          37 42 -10 -47 hvcurveto
          hintmask 11111000
          -38 -33 -169 -45 vvcurveto
          -48 19 -28 53 vhcurveto
          -2 -10 rlineto
          hintmask 11011000
          -64 -25 -31 -77 -18 hvcurveto
          -6 -27 -31 -144 -7 -35 rrcurveto
          -59 -11 -51 -12 -40 hhcurveto
          endchar
        </CharString>
        <CharString name="bracketleft">
          -405 -161 65 766 65 hstem
          -15 344 vstem
          -15 -161 rmoveto
          187 hlineto
          11 65 rlineto
          -109 hlineto
          135 766 rlineto
          109 hlineto
          11 65 rlineto
          -188 hlineto
          endchar
        </CharString>
        <CharString name="bracketright">
          -405 -161 65 766 65 hstem
          -75 344 vstem
          -75 -161 rmoveto
          187 hlineto
          157 896 rlineto
          -188 hlineto
          -11 -65 rlineto
          109 hlineto
          -135 -766 rlineto
          -108 hlineto
          endchar
        </CharString>
        <CharString name="breve">
          -350 606 55 callgsubr
          hstemhm
          29 293 hintmask 01100000
          163 606 -84 callgsubr
          hintmask 10100000
          -51 callgsubr
          hintmask 01100000
          -90 callsubr
          endchar
        </CharString>
        <CharString name="brokenbar">
          56 callsubr
          357 rmoveto
          78 366 -78 hlineto
          -896 vmoveto
          78 366 -78 hlineto
          endchar
        </CharString>
        <CharString name="bullet">
          -333 220 247 hstem
          49 251 vstem
          157 220 rmoveto
          91 52 67 77 58 -45 45 -63 -91 -52 -68 -77 -58 45 -44 63 hvcurveto
          endchar
        </CharString>
        <CharString name="c">
          19 callsubr
          34 callgsubr
          224 -12 -89 callsubr
        </CharString>
        <CharString name="cacute">
          19 callsubr
          53 132 34 callgsubr
          264 591 -94 callgsubr
          -148 -735 -89 callsubr
        </CharString>
        <CharString name="cacute.loclPLK">
          19 callsubr
          53 132 34 callgsubr
          258 591 -53 callsubr
          -80 -735 -89 callsubr
        </CharString>
        <CharString name="caron">
          -350 588 135 hstem
          30 295 vstem
          112 588 -93 callsubr
          endchar
        </CharString>
        <CharString name="ccaron">
          19 callsubr
          50 135 34 callgsubr
          265 588 -93 callsubr
          41 -735 -89 callsubr
        </CharString>
        <CharString name="ccedilla">
          -183 48 callsubr
          49 -21 473 73 hstemhm
          21 92 116 73 83 91 hintmask 10011111
          474 331 rmoveto
          1 12 1 13 12 vvcurveto
          98 -50 72 -143 -193 -69 -179 -166 -119 45 -66 102 -16 vhcurveto
          hintmask 10111111
          -25 -69 -42 callgsubr
          hintmask 01011111
          -9 -49 rlineto
          hintmask 10111111
          -21 callsubr
          9 24 136 2 68 94 18 111 rlinecurve
          -85 hlineto
          -67 -13 -43 -67 -89 hhcurveto
          -70 -38 37 100 27 2 30 5 29 hvcurveto
          91 16 45 90 105 hhcurveto
          81 18 -48 -57 -10 0 -9 -1 -10 hvcurveto
          endchar
        </CharString>
        <CharString name="ccircumflex">
          19 callsubr
          50 135 -56 56 hstemhm
          21 92 272 91 hintmask 11101100
          155 588 -18 callgsubr
          hintmask 11011100
          72 79 rlineto
          hintmask 11101100
          -97 callgsubr
          -60 -735 -89 callsubr
        </CharString>
        <CharString name="cdotaccent">
          19 callsubr
          90 95 34 callgsubr
          270 -8 callsubr
          -63 -735 -89 callsubr
        </CharString>
        <CharString name="cedilla">
          -350 50 callsubr
          88 hstemhm
          190 73 hintmask 10110000
          139 -182 rmoveto
          58 66 14 74 41 -37 17 -45 hvcurveto
          17 47 rlineto
          -62 hlineto
          -32 -88 -42 callgsubr
          hintmask 01110000
          -9 -49 rlineto
          hintmask 10110000
          -5 28 39 -3 36 hhcurveto
          endchar
        </CharString>
        <CharString name="cent">
          723 -20 hstem
          58 92 272 91 vstem
          194 -49 rmoveto
          51 hlineto
          20 115 136 2 69 94 18 111 rlinecurve
          -85 hlineto
          -12 -62 -37 -62 -76 -9 71 401 rcurveline
          59 -10 14 -43 -50 vvcurveto
          -10 0 -9 -1 -10 vhcurveto
          90 hlineto
          1 12 1 13 12 vvcurveto
          87 -40 67 -111 13 vhcurveto
          20 110 rlineto
          -51 hlineto
          -19 -108 rlineto
          -187 -5 -67 -176 -163 vvcurveto
          -123 48 -66 109 -14 vhcurveto
          13 73 rmoveto
          -51 10 -27 40 85 vvcurveto
          24 2 25 3 26 vhcurveto
          13 88 39 89 92 13 rrcurveto
          endchar
        </CharString>
        <CharString name="circumflex">
          -350 588 135 -56 56 hstemhm
          7 295 hintmask 10100000
          7 588 -18 callgsubr
          hintmask 01100000
          72 79 rlineto
          hintmask 10100000
          -97 callgsubr
          endchar
        </CharString>
        <CharString name="colon">
          -405 0 108 310 108 hstem
          36 193 vstem
          110 418 -46 callsubr
          -93 -526 -46 callsubr
          endchar
        </CharString>
        <CharString name="comma">
          -405 0 108 hstem
          12 143 vstem
          12 -134 -30 callsubr
          endchar
        </CharString>
        <CharString name="copyright">
          54 -12 47 99 55 308 56 98 47 hstem
          13 49 129 69 198 68 148 -44 callsubr
          99 vmoveto
          114 44 74 84 hvcurveto
          -64 hlineto
          -67 -26 -36 -68 -76 -32 44 110 111 34 43 74 70 20 -32 -70 vhcurveto
          68 hlineto
          102 -46 56 -112 -121 -56 -66 -144 -144 55 -65 122 vhcurveto
          endchar
        </CharString>
        <CharString name="currency">
          102 79 338 79 hstem
          33 82 326 82 vstem
          74 99 rmoveto
          55 58 rlineto
          -37 40 55 -18 54 hhcurveto
          54 55 18 37 40 hvcurveto
          55 -58 45 45 -54 56 rlineto
          34 42 16 54 55 vvcurveto
          55 -16 56 -34 39 vhcurveto
          55 54 -48 48 -57 -56 rlineto
          33 -38 -54 18 -53 hhcurveto
          -53 -54 -18 -33 -38 hvcurveto
          -57 56 -48 -48 55 -54 rlineto
          -34 -39 -16 -56 -55 vvcurveto
          -55 16 -54 34 -42 vhcurveto
          -54 -56 rlineto
          249 37 rmoveto
          -91 -72 79 91 89 73 79 90 90 73 -79 -89 -91 -72 -79 -91 hvcurveto
          endchar
        </CharString>
        <CharString name="d">
          -12 43 callsubr
          hintmask 10111100
          -19 callsubr
          hintmask 01111100
          -65 callsubr
          hintmask 10111100
          -4 callsubr
          endchar
        </CharString>
        <CharString name="dagger">
          686 -20 hstem
          66 482 vstem
          148 -170 -18 callgsubr
          89 601 13 callsubr
          rlineto
          endchar
        </CharString>
        <CharString name="daggerdbl">
          686 -20 hstem
          -4 551 vstem
          150 -170 rmoveto
          88 hlineto
          21 197 200 -17 17 93 -206 -18 47 175 13 171 13 callsubr
          -47 -171 -13 -175 -199 18 -15 -93 203 17 rlineto
          endchar
        </CharString>
        <CharString name="dcaron">
          -58 -12 73 -61 61 404 73 -48 196 -91 91 -91 128 hstemhm
          21 92 257 65 hintmask 10101011
          -19 callsubr
          hintmask 01100111
          -65 callsubr
          hintmask 10101011
          -146 68 -62 110 vhcurveto
          hintmask 10010011
          383 502 rmoveto
          46 hlineto
          hintmask 10101011
          -11 callgsubr
          32 hlineto
          -411 -534 -41 callsubr
        </CharString>
        <CharString name="dcroat">
          -12 73 -61 61 404 73 58 62 -62 127 hstemhm
          21 92 257 65 hintmask 10101110
          -19 callsubr
          hintmask 01101110
          -71 65 vlineto
          104 596 rlineto
          70 hlineto
          hintmask 10110110
          11 62 rlineto
          -70 hlineto
          hintmask 10101110
          12 65 -72 callsubr
          hintmask 10110110
          -12 -65 rlineto
          -136 hlineto
          hintmask 10101110
          -11 -62 rlineto
          137 hlineto
          -23 -130 rlineto
          -6 hlineto
          46 -27 -47 26 -76 hhcurveto
          -142 -110 -133 -209 -146 68 -62 110 hvcurveto
          25 73 -41 callsubr
        </CharString>
        <CharString name="degree">
          -283 428 53 163 54 hstem
          90 53 163 54 vstem
          225 428 rmoveto
          75 60 60 75 75 -60 60 -75 -75 -60 -60 -75 -75 60 -60 75 hvcurveto
          53 vmoveto
          -45 -37 37 45 45 37 36 45 45 36 -36 -45 -45 -36 -37 -45 hvcurveto
          endchar
        </CharString>
        <CharString name="dieresis">
          -350 628 95 hstem
          21 291 vstem
          21 -64 callgsubr
          endchar
        </CharString>
        <CharString name="divide">
          -134 0 100 114 83 114 100 hstem
          30 488 vstem
          251 411 rmoveto
          100 hlineto
          18 100 rlineto
          -100 hlineto
          -239 -297 rmoveto
          473 -60 callsubr
          -473 hlineto
          133 -297 rmoveto
          100 hlineto
          18 100 rlineto
          -100 hlineto
          endchar
        </CharString>
        <CharString name="dollar">
          69 71 583 -20 hstemhm
          38 90 -32 94 189 95 -60 90 hintmask 11011000
          186 -49 rmoveto
          51 hlineto
          20 116 rlineto
          114 2 103 56 125 vvcurveto
          90 -83 27 -77 21 vhcurveto
          hintmask 11010100
          28 154 rlineto
          54 -6 18 -28 -31 vvcurveto
          -6 -1 -11 -2 -6 vhcurveto
          86 hlineto
          3 6 4 21 14 vvcurveto
          60 -50 49 -99 11 vhcurveto
          42 callsubr
          -51 hlineto
          -19 -106 rlineto
          -119 -4 -89 -65 -101 vvcurveto
          -84 80 -25 75 -22 vhcurveto
          hintmask 11101000
          -32 -176 rlineto
          -53 5 -38 23 48 vvcurveto
          4 1 13 3 10 vhcurveto
          -87 hlineto
          -4 -13 -3 -20 -13 vvcurveto
          -63 48 -55 121 -10 vhcurveto
          hintmask 11011000
          59 333 rmoveto
          -44 13 -32 17 35 vvcurveto
          24 17 44 84 8 vhcurveto
          -21 -403 rmoveto
          29 162 rlineto
          45 -16 35 -20 -40 vvcurveto
          -49 -48 -30 -61 -7 vhcurveto
          endchar
        </CharString>
        <CharString name="dotaccent">
          -350 628 95 hstem
          114 104 vstem
          114 -8 callsubr
          endchar
        </CharString>
        <CharString name="dotbelowcomb">
          -683 -173 95 hstem
          -295 104 vstem
          -295 -173 -101 callgsubr
          endchar
        </CharString>
        <CharString name="dotlessi">
          -29 callsubr
          hstem
          35 181 vstem
          35 hmoveto
          -55 callgsubr
          endchar
        </CharString>
        <CharString name="e">
          -60 callgsubr
          hstem
          -20 callsubr
          vstem
          253 -12 -103 callgsubr
        </CharString>
        <CharString name="eacute">
          -60 callgsubr
          53 132 hstem
          -20 callsubr
          vstem
          272 591 -94 callgsubr
          -127 -86 callgsubr
        </CharString>
        <CharString name="ebreve">
          -60 callgsubr
          68 55 callgsubr
          hstemhm
          -20 callsubr
          hintmask 11101110
          316 606 -84 callgsubr
          hintmask 11110110
          -51 callgsubr
          hintmask 11101110
          -90 callsubr
          -63 -618 -103 callgsubr
        </CharString>
        <CharString name="ecaron">
          -60 callgsubr
          50 135 hstem
          -20 callsubr
          vstem
          273 588 -93 callsubr
          62 -86 callgsubr
        </CharString>
        <CharString name="ecircumflex">
          -60 callgsubr
          50 135 -56 56 hstemhm
          -20 callsubr
          hintmask 11110110
          163 588 -18 callgsubr
          hintmask 11101110
          72 79 rlineto
          hintmask 11110110
          -90 callgsubr
          endchar
        </CharString>
        <CharString name="edieresis">
          -60 callgsubr
          90 95 hstem
          -20 callsubr
          vstem
          185 -64 callgsubr
          -136 -86 callgsubr
        </CharString>
        <CharString name="edotaccent">
          -60 callgsubr
          90 95 hstem
          -20 callsubr
          vstem
          278 -8 callsubr
          -42 -86 callgsubr
        </CharString>
        <CharString name="egrave">
          -60 callgsubr
          53 132 hstem
          -20 callsubr
          vstem
          278 591 -78 callgsubr
          60 -732 -103 callgsubr
        </CharString>
        <CharString name="eight">
          -12 73 253 73 238 73 hstemhm
          12 91 -17 89 230 92 -52 89 hintmask 00000000
          hintmask 11110100
          229 -12 rmoveto
          179 89 107 123 60 -26 46 -62 28 hvcurveto
          hintmask 11101010
          82 37 43 70 77 vvcurveto
          92 -65 70 -135 -151 -97 -102 -117 -53 23 -46 48 -28 vhcurveto
          hintmask 11110100
          -98 -35 -47 -75 -89 vvcurveto
          -94 61 -71 156 vhcurveto
          hintmask 11101010
          60 399 rmoveto
          -72 -42 35 59 89 67 55 89 72 42 -35 -59 -94 -75 -50 -81 hvcurveto
          hintmask 11110100
          -57 -326 rmoveto
          -85 -44 38 61 94 68 60 105 86 43 -37 -62 -109 -87 -45 -86 hvcurveto
          endchar
        </CharString>
        <CharString name="ellipsis">
          317 0 108 hstem
          85 785 vstem
          85 hmoveto
          58 callgsubr
          313 -108 rmoveto
          58 callgsubr
          312 -108 rmoveto
          58 callgsubr
          endchar
        </CharString>
        <CharString name="emacron">
          -60 callgsubr
          89 72 hstem
          -20 callsubr
          vstem
          170 627 -69 callsubr
          70 -711 -103 callgsubr
        </CharString>
        <CharString name="emdash">
          14 callgsubr
        </CharString>
        <CharString name="endash">
          233 75 hstem
          -6 568 vstem
          -6 233 rmoveto
          555 hlineto
          13 75 rlineto
          -556 hlineto
          endchar
        </CharString>
        <CharString name="eng">
          -182 69 134 -1 callsubr
          4 callgsubr
          hintmask 11101100
          297 27 callgsubr
          72 410 rlineto
          4 23 3 24 18 vvcurveto
          90 -60 34 -97 -64 -68 -34 -49 -40 vhcurveto
          -7 hlineto
          hintmask 11011100
          71 -64 vlineto
          -93 -526 rlineto
          88 hlineto
          53 301 rlineto
          hintmask 11101100
          103 18 85 61 80 hhcurveto
          45 33 -15 -54 -14 -2 -19 -3 -20 hvcurveto
          -71 -408 68 callgsubr
          -31 hhcurveto
          -44 hlineto
          -10 -57 rlineto
          -31 callsubr
        </CharString>
        <CharString name="eogonek">
          -182 65 105 -56 callgsubr
          hstem
          21 90 161 85 65 89 vstem
          360 -19 callgsubr
          -32 hlineto
          -33 -11 24 27 43 30 44 21 18 hvcurveto
          43 37 24 41 10 62 rrcurveto
          -86 hlineto
          -85 -14 -64 -33 -70 hhcurveto
          -95 -45 45 95 12 0 12 3 14 hvcurveto
          381 hlineto
          8 44 rlineto
          5 27 3 24 23 vvcurveto
          119 -74 62 -132 -200 -84 -155 -187 -142 77 -66 155 16 16 2 2 15 vhcurveto
          -16 -24 -12 -29 -37 vvcurveto
          -64 46 -20 42 vhcurveto
          -233 494 rmoveto
          98 24 59 55 92 hhcurveto
          72 48 -32 -82 -12 0 -13 -4 -14 hvcurveto
          endchar
        </CharString>
        <CharString name="equal">
          -99 106 83 129 84 hstem
          29 526 vstem
          67 318 rmoveto
          473 hlineto
          15 84 rlineto
          -473 hlineto
          -53 -296 rmoveto
          473 -60 callsubr
          -473 hlineto
          endchar
        </CharString>
        <CharString name="equivalence">
          -100 7 83 129 84 129 84 hstem
          0 561 vstem
          75 432 rmoveto
          472 hlineto
          14 84 rlineto
          -472 hlineto
          -52 -297 rmoveto
          472 hlineto
          15 84 rlineto
          -472 hlineto
          -52 -296 rmoveto
          472 21 callsubr
          -472 hlineto
          endchar
        </CharString>
        <CharString name="estimated">
          -83 -12 42 218 42 206 42 hstem
          45 108 298 108 vstem
          302 -12 rmoveto
          104 78 50 80 42 hvcurveto
          -34 21 rlineto
          -67 -34 -68 -42 -88 hhcurveto
          -62 -50 19 34 -37 hvcurveto
          165 406 5 vlineto
          165 -98 120 -159 -160 -97 -116 -159 -159 97 -116 160 vhcurveto
          -149 302 rmoveto
          152 vlineto
          34 37 50 20 62 hhcurveto
          61 50 -20 -35 38 hvcurveto
          -151 vlineto
          endchar
        </CharString>
        <CharString name="eth">
          34 callsubr
          -10 -20 98 58 -58 117 -101 58 -12 55 hstemhm
          21 92 311 92 hintmask 1100100110000000
          240 -12 rmoveto
          205 71 178 173 hvcurveto
          hintmask 1100010110000000
          106 -39 96 -60 78 vhcurveto
          94 6 11 60 -154 -10 rlineto
          hintmask 1100100110000000
          -15 17 -16 15 -18 16 rrcurveto
          -98 hlineto
          -2 -4 rlineto
          hintmask 1100001110000000
          20 -18 21 -16 18 -17 rrcurveto
          hintmask 1101000110000000
          -101 -8 rlineto
          hintmask 1010100110000000
          -10 -60 154 12 21 -28 19 -27 15 -29 rlinecurve
          -2 -2 rlineto
          hintmask 1100100110000000
          8 -23 -26 4 -28 hhcurveto
          -87 -62 -32 -50 -44 hvcurveto
          -59 -68 -24 -102 -101 vvcurveto
          -134 75 -63 144 vhcurveto
          3 73 rmoveto
          -88 -42 39 93 30 2 31 6 30 hvcurveto
          96 18 50 85 105 hhcurveto
          88 42 -40 -94 -32 -3 -34 -6 -32 hvcurveto
          -93 -19 -51 -79 -102 hhcurveto
          endchar
        </CharString>
        <CharString name="exclam">
          -405 0 108 578 -20 hstem
          29 228 vstem
          78 171 32 callsubr
          -114 -686 -46 callsubr
          endchar
        </CharString>
        <CharString name="exclamdbl">
          -183 0 108 578 -20 hstem
          29 478 vstem
          78 171 32 callsubr
          185 -515 32 callsubr
          -364 -686 -46 callsubr
          231 -108 -46 callsubr
          endchar
        </CharString>
        <CharString name="exclamdown">
          -350 418 108 hstem
          62 228 vstem
          171 418 -46 callsubr
          -128 -686 rmoveto
          114 hlineto
          65 515 rlineto
          -62 hlineto
          endchar
        </CharString>
        <CharString name="f">
          -405 -182 73 562 73 132 73 hstem
          -101 446 vstem
          -28 -182 rmoveto
          17 callgsubr
          101 29 callsubr
          -101 hlineto
          15 84 -73 callsubr
          endchar
        </CharString>
        <CharString name="f_f">
          -182 73 130 -21 453 73 132 73 hstem
          -101 724 vstem
          560 658 rmoveto
          52 hlineto
          11 61 rlineto
          7 -17 -29 5 -27 hhcurveto
          -98 -27 -61 -60 -10 hvcurveto
          -15 -84 rlineto
          -190 hlineto
          15 84 -73 callsubr
          17 callgsubr
          190 hlineto
          -80 -453 rlineto
          88 hlineto
          80 453 rlineto
          101 29 callsubr
          -101 hlineto
          15 84 47 callsubr
          endchar
        </CharString>
        <CharString name="fi">
          -183 -182 73 130 -21 453 73 99 98 -65 73 hstemhm
          -101 607 hintmask 11110100
          -28 -182 rmoveto
          17 callgsubr
          101 29 callsubr
          -101 hlineto
          hintmask 11101100
          15 84 -71 callsubr
          hintmask 11110100
          -7 17 29 -5 27 hhcurveto
          429 807 -23 callsubr
          -127 -20 callgsubr
        </CharString>
        <CharString name="five">
          -12 72 312 74 156 84 hstem
          14 91 305 93 vstem
          228 -12 rmoveto
          151 124 101 178 122 -75 57 -103 -76 -54 -24 -28 -36 hvcurveto
          54 208 rlineto
          315 hlineto
          15 84 rlineto
          -390 hlineto
          -95 -380 79 -13 rlineto
          47 38 62 32 67 hhcurveto
          66 40 -40 -73 -146 -95 -53 -92 -70 -48 45 75 10 1 11 2 12 hvcurveto
          -90 hlineto
          -3 -17 -1 -16 -15 vvcurveto
          -111 80 -66 134 vhcurveto
          endchar
        </CharString>
        <CharString name="fiveeighths">
          57 callsubr
          -36 55 134 56 63 56 12 -20 hstemhm
          61 64 132 65 175 46 callsubr
          hintmask 1101110110110000
          55 -12 rmoveto
          80 hlineto
          hintmask 1101101110110000
          671 710 rlineto
          -80 hlineto
          -547 -376 rmoveto
          80 63 54 92 67 -42 32 -57 -28 -22 -7 -9 -17 hvcurveto
          hintmask 1101110110110000
          20 79 rlineto
          158 hlineto
          10 56 rlineto
          -211 hlineto
          -48 -186 53 -9 rlineto
          14 22 20 6 26 hhcurveto
          30 21 -14 -34 -58 -41 -28 -40 -31 -20 19 32 4 0 5 1 5 hvcurveto
          -63 hlineto
          -2 -9 0 -8 -8 vvcurveto
          hintmask 1101101110110000
          -60 44 -35 74 vhcurveto
          hintmask 1101110111010000
          436 -334 9 callsubr
          hintmask 1110110110101000
          -24 callsubr
          hintmask 1101110111010000
          33 callgsubr
          hintmask 1110110110101000
          -27 callsubr
          hintmask 1101110111010000
          -31 callgsubr
        </CharString>
        <CharString name="fl">
          -183 -182 73 130 -21 453 73 132 65 -65 73 hstemhm
          -101 607 hintmask 11101100
          -28 -182 rmoveto
          17 callgsubr
          101 29 callsubr
          -101 hlineto
          15 84 -73 callsubr
          319 182 rmoveto
          88 hlineto
          hintmask 11110100
          -24 callgsubr
          endchar
        </CharString>
        <CharString name="florin">
          -183 73 512 73 183 73 hstem
          -24 556 vstem
          47 -183 rmoveto
          101 31 61 60 18 hvcurveto
          140 464 rlineto
          101 hlineto
          21 73 rlineto
          -101 hlineto
          41 135 rlineto
          31 10 20 17 33 hhcurveto
          52 hlineto
          18 61 rlineto
          7 -15 -29 5 -27 hhcurveto
          -101 -31 -61 -60 -18 hvcurveto
          -41 -135 rlineto
          -77 hlineto
          -21 -73 rlineto
          77 hlineto
          -140 -464 rlineto
          -31 -10 -20 -17 -33 hhcurveto
          -52 hlineto
          -18 -61 rlineto
          -7 15 29 -5 27 hhcurveto
          endchar
        </CharString>
        <CharString name="four">
          21 -21 169 73 456 -20 hstem
          2 510 vstem
          290 hmoveto
          88 hlineto
          30 169 rlineto
          91 29 callsubr
          -91 hlineto
          62 354 rlineto
          -47 hlineto
          -23 -52 -16 -33 -25 -44 -39 -225 rcurveline
          -233 hlineto
          50 55 152 217 74 184 rrcurveto
          -98 hlineto
          -68 -168 -88 -145 -108 -142 -12 -74 rcurveline
          318 hlineto
          endchar
        </CharString>
        <CharString name="fraction">
          6 callgsubr
        </CharString>
        <CharString name="franc">
          21 -21 312 73 -2 93 135 75 hstemhm
          18 548 hintmask 11011000
          18 hmoveto
          90 hlineto
          55 312 rlineto
          131 hlineto
          -55 -312 rlineto
          88 hlineto
          44 249 rlineto
          hintmask 10111000
          99 17 64 35 62 hhcurveto
          37 hlineto
          15 85 rlineto
          0 -18 8 -28 vhcurveto
          hintmask 11011000
          -66 -40 -47 -44 -24 hvcurveto
          -6 hlineto
          hintmask 10111000
          4 79 rlineto
          -67 hlineto
          hintmask 11011000
          -14 -79 rlineto
          -131 hlineto
          40 226 rlineto
          258 hlineto
          13 75 rlineto
          -348 hlineto
          endchar
        </CharString>
        <CharString name="g">
          -34 callsubr
          hstemhm
          21 91 hintmask 11101000
          190 -182 -18 callsubr
          hintmask 11011000
          17 callsubr
          hintmask 11101000
          -94 callsubr
        </CharString>
        <CharString name="g_tilde.loclGUA">
          -34 callsubr
          113 61 callsubr
          21 91 hintmask 00000000
          hintmask 11101010
          153 35 callgsubr
          hintmask 11100110
          -69 callgsubr
          hintmask 11101010
          -23 -6 -13 -8 -15 -50 -37 31 -56 hhcurveto
          -60 -34 -48 -56 -9 hvcurveto
          hintmask 11010110
          37 -801 -18 callsubr
          17 callsubr
          hintmask 11100110
          -23 -71 rlineto
          -6 hlineto
          55 -28 -58 28 -73 hhcurveto
          -149 -102 -140 -209 -125 66 -56 104 70 52 27 45 41 hvcurveto
          6 hlineto
          -4 -21 rlineto
          -114 -22 -58 -55 -88 hhcurveto
          -64 -40 -40 callsubr
          hintmask 11010110
          -98 77 -49 117 vhcurveto
          hintmask 11100110
          34 263 rmoveto
          -77 -35 30 81 150 58 123 121 76 32 -43 -80 -130 -59 -131 -116 hvcurveto
          endchar
        </CharString>
        <CharString name="gbreve">
          -34 callsubr
          100 55 callgsubr
          hstemhm
          21 91 hintmask 11100110
          312 606 -84 callgsubr
          hintmask 11101010
          -51 callgsubr
          hintmask 11100110
          -90 callsubr
          -122 -788 -18 callsubr
          hintmask 11010110
          17 callsubr
          hintmask 11100110
          -94 callsubr
        </CharString>
        <CharString name="gcaron">
          -34 callsubr
          82 135 hstemhm
          21 91 hintmask 11101100
          269 588 -93 callsubr
          3 -905 -18 callsubr
          hintmask 11011100
          17 callsubr
          hintmask 11101100
          -94 callsubr
        </CharString>
        <CharString name="gcircumflex">
          -34 callsubr
          82 135 -56 56 hstemhm
          21 91 hintmask 11101010
          159 588 -18 callgsubr
          hintmask 11100110
          72 79 rlineto
          hintmask 11011010
          -97 callgsubr
          -98 -905 -18 callsubr
          17 callsubr
          hintmask 11101010
          -23 -71 rlineto
          -6 hlineto
          55 -28 -58 28 -73 hhcurveto
          -149 -102 -140 -209 -125 66 -56 104 70 52 27 45 41 hvcurveto
          6 hlineto
          -4 -21 rlineto
          -114 -22 -58 -55 -88 hhcurveto
          -64 -40 -40 callsubr
          hintmask 11011010
          -98 77 -49 117 vhcurveto
          hintmask 11101010
          34 263 rmoveto
          -77 -35 30 81 150 58 123 121 76 32 -43 -80 -130 -59 -131 -116 hvcurveto
          endchar
        </CharString>
        <CharString name="gcommaaccent">
          -34 callsubr
          102 91 hstemhm
          21 91 hintmask 11101100
          266 608 rmoveto
          88 hlineto
          16 91 rlineto
          -35 hlineto
          52 81 rlineto
          -47 hlineto
          -59 -88 rlineto
          -91 -874 -18 callsubr
          hintmask 11011100
          17 callsubr
          hintmask 11101100
          -94 callsubr
        </CharString>
        <CharString name="gdotaccent">
          -34 callsubr
          122 95 hstemhm
          21 91 hintmask 11101100
          274 -8 callsubr
          -101 -905 -18 callsubr
          hintmask 11011100
          17 callsubr
          hintmask 11101100
          -94 callsubr
        </CharString>
        <CharString name="germandbls">
          -72 0 74 276 73 239 73 hstemhm
          472 89 -57 91 hintmask 11110000
          6 hmoveto
          88 hlineto
          91 518 rlineto
          95 17 71 49 102 hhcurveto
          hintmask 11101000
          85 44 -41 -63 -71 -76 -64 -82 hvcurveto
          -94 hlineto
          -13 -73 rlineto
          104 hlineto
          hintmask 11110000
          76 53 -49 -73 -83 -84 -71 -83 hvcurveto
          -114 hlineto
          -13 -74 rlineto
          134 hlineto
          118 131 94 139 79 -45 56 -70 23 hvcurveto
          4 vlineto
          hintmask 11101000
          90 26 59 77 75 vvcurveto
          102 -88 60 -128 -70 -66 -17 -37 -51 vhcurveto
          -48 -35 -35 -54 -13 -76 rrcurveto
          endchar
        </CharString>
        <CharString name="grave">
          49 callgsubr
          86 160 vstem
          171 591 -78 callgsubr
          endchar
        </CharString>
        <CharString name="greater">
          -99 4 500 hstem
          10 528 vstem
          10 4 22 callgsubr
          endchar
        </CharString>
        <CharString name="greaterequal">
          -134 0 83 454 -20 hstem
          -17 549 vstem
          4 124 22 callgsubr
          -38 -217 6 callsubr
        </CharString>
        <CharString name="guillemotleft">
          326 200 0 -20 hstemhm
          55 474 hintmask 01100000
          176 126 rmoveto
          71 hlineto
          hintmask 10100000
          8 callgsubr
          332 -200 rmoveto
          71 hlineto
          8 callgsubr
          endchar
        </CharString>
        <CharString name="guillemotright">
          326 200 0 -20 hstemhm
          19 459 hintmask 01100000
          19 126 rmoveto
          79 hlineto
          hintmask 10100000
          8 callsubr
          30 -200 rmoveto
          79 hlineto
          8 callsubr
          endchar
        </CharString>
        <CharString name="guilsinglleft">
          -350 526 -20 hstem
          55 263 vstem
          176 126 rmoveto
          71 hlineto
          8 callgsubr
          endchar
        </CharString>
        <CharString name="guilsinglright">
          -350 526 -20 hstem
          19 264 vstem
          19 126 rmoveto
          79 hlineto
          8 callsubr
          endchar
        </CharString>
        <CharString name="h">
          21 49 callsubr
          hstem
          415 91 vstem
          13 hmoveto
          -92 callgsubr
          -59 -62 -29 -42 -41 vhcurveto
          -4 hlineto
          45 256 -72 callsubr
          endchar
        </CharString>
        <CharString name="hbar">
          21 -21 465 73 58 62 -62 127 hstemhm
          415 91 hintmask 11011000
          13 hmoveto
          -92 callgsubr
          -59 -62 -29 -42 -41 vhcurveto
          -4 hlineto
          22 129 rlineto
          140 hlineto
          hintmask 11101000
          11 62 rlineto
          -140 hlineto
          hintmask 11011000
          12 65 -72 callsubr
          hintmask 11101000
          -12 -65 rlineto
          -66 hlineto
          hintmask 11011000
          -11 -62 rlineto
          66 hlineto
          endchar
        </CharString>
        <CharString name="hcircumflex">
          21 49 callsubr
          45 135 hstemhm
          415 91 hintmask 00000000
          hintmask 11111000
          36 748 rmoveto
          94 hlineto
          72 79 -97 callgsubr
          -152 -883 rmoveto
          -92 callgsubr
          -59 -62 -29 -42 -41 vhcurveto
          -4 hlineto
          hintmask 11101000
          45 256 -72 callsubr
          endchar
        </CharString>
        <CharString name="hookabovecomb">
          -683 591 71 callgsubr
          -86 74 vstem
          -142 591 rmoveto
          -102 callgsubr
          -15 -9 -7 -23 hvcurveto
          -13 hlineto
          endchar
        </CharString>
        <CharString name="house">
          -79 0 40 hstem
          77 39 372 39 vstem
          77 hmoveto
          450 310 hlineto
          -225 253 -225 -253 rlineto
          39 -270 rmoveto
          253 vlineto
          186 208 186 -208 rlineto
          -253 vlineto
          endchar
        </CharString>
        <CharString name="hungarumlaut">
          49 callgsubr
          15 330 vstem
          15 591 -54 callgsubr
          endchar
        </CharString>
        <CharString name="hyphen">
          14 callsubr
        </CharString>
        <CharString name="i">
          -461 21 28 callsubr
          119 98 hstem
          13 215 12 callsubr
          endchar
        </CharString>
        <CharString name="i.loclTRK">
          -29 callsubr
          122 95 hstem
          35 215 vstem
          146 -8 callsubr
          -128 -20 callgsubr
        </CharString>
        <CharString name="iacute">
          -405 21 20 callgsubr
          hstem
          35 306 vstem
          131 591 rmoveto
          79 hlineto
          131 129 -1 3 rlineto
          -100 hlineto
          -205 -20 callgsubr
        </CharString>
        <CharString name="iacute_j.loclNLD">
          -183 44 callsubr
          85 132 hstem
          35 571 vstem
          140 591 -94 callgsubr
          148 -132 -94 callgsubr
          -469 31 callsubr
          110 -708 -80 callsubr
        </CharString>
        <CharString name="ibreve">
          -29 callsubr
          100 55 callgsubr
          hstemhm
          35 308 hintmask 11011000
          184 606 -84 callgsubr
          hintmask 11101000
          -51 callgsubr
          hintmask 11011000
          -90 callsubr
          -149 -606 -56 callsubr
        </CharString>
        <CharString name="icircumflex">
          -29 callsubr
          82 135 -56 56 hstemhm
          27 295 hintmask 11101000
          27 588 -18 callgsubr
          hintmask 11011000
          72 79 rlineto
          hintmask 11101000
          -97 callgsubr
          -121 -20 callgsubr
        </CharString>
        <CharString name="idieresis">
          -29 callsubr
          122 95 hstem
          35 302 vstem
          46 -64 callgsubr
          -215 -20 callgsubr
        </CharString>
        <CharString name="igrave">
          -405 21 20 callgsubr
          hstem
          35 186 vstem
          146 591 -78 callgsubr
          -26 -720 -56 callsubr
        </CharString>
        <CharString name="ij">
          -239 44 callsubr
          119 98 hstem
          13 437 vstem
          123 16 callsubr
          205 -98 -23 callsubr
          -349 31 callsubr
          76 -708 -80 callsubr
        </CharString>
        <CharString name="imacron">
          -29 callsubr
          133 72 hstem
          31 318 vstem
          31 639 -69 callsubr
          -9 -711 -56 callsubr
        </CharString>
        <CharString name="infinity">
          30 142 72 163 76 hstem
          43 75 473 76 vstem
          166 142 rmoveto
          70 57 45 51 52 hvcurveto
          -51 35 44 -45 76 hhcurveto
          97 70 86 99 71 -44 55 -79 -70 -57 -46 -51 -51 hvcurveto
          51 -36 -44 46 -74 hhcurveto
          -96 -73 -87 -98 -72 43 -54 80 hvcurveto
          13 72 rmoveto
          -35 -26 28 37 52 47 46 44 44 28 -36 -44 27 hvcurveto
          -46 -44 -40 -37 -45 hhcurveto
          324 hmoveto
          -45 -29 37 46 -28 hvcurveto
          44 44 41 36 45 hhcurveto
          35 25 -29 -37 -52 -44 -45 -44 hvcurveto
          endchar
        </CharString>
        <CharString name="integral">
          -409 -141 50 901 49 hstem
          -55 392 vstem
          -55 -141 rmoveto
          109 50 17 95 17 hvcurveto
          27 153 83 629 0 vvcurveto
          43 8 40 14 49 hhcurveto
          9 49 rlineto
          -109 -53 -18 -94 -16 hvcurveto
          -27 -154 -84 -626 0 vvcurveto
          -44 -7 -39 -14 -48 hhcurveto
          endchar
        </CharString>
        <CharString name="integralbt">
          -79 -250 49 hstem
          89 339 vstem
          89 -250 rmoveto
          103 57 18 94 17 hvcurveto
          14 80 78 477 70 440 rrcurveto
          -74 hlineto
          -160 -1003 rlineto
          -43 -7 -41 -14 -49 hhcurveto
          endchar
        </CharString>
        <CharString name="integraltp">
          -79 810 49 hstem
          175 339 vstem
          175 -250 rmoveto
          74 hlineto
          160 1003 rlineto
          43 7 41 14 49 hhcurveto
          8 49 rlineto
          -103 -57 -18 -94 -17 hvcurveto
          -14 -80 -78 -477 -70 -440 rrcurveto
          endchar
        </CharString>
        <CharString name="intersection">
          36 21 -21 604 72 hstem
          580 74 vstem
          47 hmoveto
          73 hlineto
          72 411 rlineto
          106 19 104 87 109 hhcurveto
          90 66 -69 -91 -11 -1 -11 -2 -11 hvcurveto
          -72 -411 rlineto
          73 hlineto
          72 410 rlineto
          3 16 1 15 16 vvcurveto
          124 -96 95 -137 -142 -134 -119 -147 -26 vhcurveto
          endchar
        </CharString>
        <CharString name="iogonek">
          -405 -190 65 146 28 callsubr
          122 95 hstem
          -35 85 vstem
          163 723 rmoveto
          -17 -95 rlineto
          87 hlineto
          17 95 rlineto
          -149 -723 rmoveto
          22 -51 callsubr
          -93 -526 rlineto
          2 hlineto
          -36 -26 -36 -35 -55 -43 callsubr
          endchar
        </CharString>
        <CharString name="itilde">
          -29 callsubr
          113 61 callsubr
          17 345 hintmask 00000000
          hintmask 11101000
          17 35 callgsubr
          hintmask 11011000
          -69 callgsubr
          hintmask 11101000
          -23 -6 -13 -8 -15 -50 -37 31 -56 hhcurveto
          -60 -34 -48 -56 -9 hvcurveto
          hintmask 11011000
          18 -619 -56 callsubr
        </CharString>
        <CharString name="j">
          -461 -182 69 639 -20 119 98 hstem
          -107 335 vstem
          123 16 callsubr
          -180 -905 -80 callsubr
        </CharString>
        <CharString name="jcircumflex">
          -461 -182 69 639 -20 82 135 -56 56 hstemhm
          -107 407 hintmask 11101000
          5 588 -18 callgsubr
          hintmask 11011000
          72 79 rlineto
          hintmask 11101000
          -97 callgsubr
          -174 -905 -80 callsubr
        </CharString>
        <CharString name="k">
          -183 21 28 callsubr
          217 -43 callgsubr
          79 450 -72 callsubr
          endchar
        </CharString>
        <CharString name="kcommaaccent">
          -183 -149 91 79 28 callsubr
          217 -43 callgsubr
          79 450 -72 callsubr
          -2 -953 -70 callgsubr
        </CharString>
        <CharString name="kgreenlandic">
          -183 21 -21 526 -43 callgsubr
          44 253 -72 callsubr
          endchar
        </CharString>
        <CharString name="l">
          67 callgsubr
          hstem
          13 215 51 callgsubr
          -24 callgsubr
          endchar
        </CharString>
        <CharString name="lacute">
          67 callgsubr
          48 132 hstemhm
          13 346 hintmask 00000000
          hintmask 11110000
          149 751 -94 callgsubr
          -244 -883 rmoveto
          88 hlineto
          hintmask 11010000
          -24 callgsubr
          endchar
        </CharString>
        <CharString name="lcaron">
          -391 21 -21 490 196 -91 91 -91 128 hstemhm
          13 354 hintmask 10101000
          13 hmoveto
          88 hlineto
          hintmask 10011000
          -24 callgsubr
          hintmask 11001000
          105 -233 rmoveto
          46 hlineto
          hintmask 10101000
          -11 callgsubr
          32 hlineto
          endchar
        </CharString>
        <CharString name="lcommaaccent">
          -461 -149 91 79 -21 723 -20 hstem
          -29 257 51 callgsubr
          -24 callgsubr
          -169 -953 -70 callgsubr
        </CharString>
        <CharString name="ldot">
          -400 21 -21 303 108 312 -20 hstem
          13 312 51 callgsubr
          -24 callgsubr
          66 -420 -46 callsubr
          endchar
        </CharString>
        <CharString name="less">
          -99 4 500 hstem
          45 528 vstem
          484 4 29 callgsubr
          endchar
        </CharString>
        <CharString name="lessequal">
          -134 0 83 hstem
          -17 583 vstem
          477 124 29 callgsubr
          -55 -320 6 callsubr
        </CharString>
        <CharString name="lira">
          0 79 124 72 76 72 202 38 callgsubr
          33 124 rlineto
          167 hlineto
          12 72 rlineto
          -166 hlineto
          14 76 rlineto
          166 hlineto
          13 72 rlineto
          -166 hlineto
          17 92 -8 callgsubr
          -14 -76 rlineto
          -84 hlineto
          -13 -72 rlineto
          85 hlineto
          -14 -76 rlineto
          -85 hlineto
          -11 -72 rlineto
          84 hlineto
          -22 -124 rlineto
          -75 hlineto
          endchar
        </CharString>
        <CharString name="logicalnot">
          -99 360 93 hstem
          62 489 vstem
          422 197 rmoveto
          84 hlineto
          45 256 rlineto
          -473 hlineto
          -16 -93 rlineto
          389 hlineto
          endchar
        </CharString>
        <CharString name="longs">
          -405 -182 73 562 73 132 73 hstem
          -101 446 vstem
          -28 -182 rmoveto
          98 25 52 callgsubr
          119 671 -73 callsubr
          endchar
        </CharString>
        <CharString name="lozenge">
          -83 -132 72 715 72 0 -20 hstemhm
          60 464 hintmask 10110000
          163 -132 rmoveto
          107 hlineto
          254 430 -102 429 rlineto
          -107 hlineto
          -255 -429 rlineto
          166 -358 rmoveto
          -78 351 rlineto
          hintmask 11010000
          210 364 78 -350 rlineto
          endchar
        </CharString>
        <CharString name="lslash">
          67 callgsubr
          hstem
          -9 266 vstem
          17 hmoveto
          88 hlineto
          63 356 75 55 14 77 -76 -55 51 290 -72 callsubr
          -64 -363 -76 -56 -13 -77 76 56 rlineto
          endchar
        </CharString>
        <CharString name="m">
          150 21 callgsubr
          hstemhm
          106 64 525 91 hintmask 11011000
          13 hmoveto
          88 hlineto
          53 303 rlineto
          102 18 75 60 71 hhcurveto
          40 29 -15 -55 -9 -1 -11 -2 -12 hvcurveto
          -64 -363 rlineto
          88 hlineto
          53 303 rlineto
          102 18 72 60 72 hhcurveto
          40 32 -15 -56 -9 -2 -10 -2 -12 hvcurveto
          -64 -363 rlineto
          88 hlineto
          67 379 rlineto
          3 16 1 15 14 vvcurveto
          83 -55 31 -84 -61 -64 -28 -55 -45 vhcurveto
          -6 hlineto
          59 -14 -49 24 -66 hhcurveto
          -63 -57 -26 -57 -45 hvcurveto
          -7 hlineto
          hintmask 10111000
          71 -64 vlineto
          endchar
        </CharString>
        <CharString name="macron">
          -350 627 72 hstem
          6 318 vstem
          6 627 -69 callsubr
          endchar
        </CharString>
        <CharString name="minus">
          -99 214 83 hstem
          48 487 vstem
          48 214 6 callsubr
        </CharString>
        <CharString name="minute">
          -496 515 171 hstem
          76 163 vstem
          76 515 40 callsubr
          endchar
        </CharString>
        <CharString name="multiply">
          -99 43 426 hstem
          52 477 vstem
          103 43 rmoveto
          181 153 124 -150 64 56 -125 149 182 154 -51 64 -182 -154 -122 149 -64 -56 123 -149 -181 -152 rlineto
          endchar
        </CharString>
        <CharString name="n">
          21 callgsubr
          4 callgsubr
          hintmask 11011000
          13 hmoveto
          -92 callgsubr
          -64 -68 -34 -49 -40 vhcurveto
          -7 hlineto
          hintmask 10111000
          71 -64 vlineto
          endchar
        </CharString>
        <CharString name="nacute">
          21 callgsubr
          85 132 4 callgsubr
          hintmask 11011100
          292 591 -94 callgsubr
          -387 -723 rmoveto
          -92 callgsubr
          -64 -68 -34 -49 -40 vhcurveto
          -7 hlineto
          hintmask 10111100
          71 -64 vlineto
          endchar
        </CharString>
        <CharString name="nacute.loclPLK">
          21 callgsubr
          85 132 4 callgsubr
          hintmask 11011100
          286 591 -53 callsubr
          -319 -723 rmoveto
          -92 callgsubr
          -64 -68 -34 -49 -40 vhcurveto
          -7 hlineto
          hintmask 10111100
          71 -64 vlineto
          endchar
        </CharString>
        <CharString name="napostrophe">
          -79 21 -21 465 73 -48 196 -160 -20 89 91 hstemhm
          154 64 245 91 hintmask 00000000
          hintmask 10100110
          30 490 rmoveto
          45 hlineto
          hintmask 11001110
          -11 callgsubr
          32 hlineto
          -21 -595 rmoveto
          -92 callgsubr
          -64 -68 -34 -49 -40 vhcurveto
          -7 hlineto
          hintmask 10011110
          71 -64 vlineto
          endchar
        </CharString>
        <CharString name="ncaron">
          21 callgsubr
          82 135 4 callgsubr
          hintmask 11011100
          293 588 -93 callsubr
          -198 -723 rmoveto
          -92 callgsubr
          -64 -68 -34 -49 -40 vhcurveto
          -7 hlineto
          hintmask 10111100
          71 -64 vlineto
          endchar
        </CharString>
        <CharString name="ncommaaccent">
          -149 91 79 -1 callsubr
          4 callgsubr
          hintmask 11101100
          13 hmoveto
          -92 callgsubr
          -64 -68 -34 -49 -40 vhcurveto
          -7 hlineto
          hintmask 11011100
          71 -64 vlineto
          40 -756 -70 callgsubr
        </CharString>
        <CharString name="nine">
          -12 73 184 72 308 73 hstemhm
          39 92 -67 93 296 89 hintmask 00000000
          hintmask 11110100
          225 -12 rmoveto
          157 101 95 280 47 hvcurveto
          8 47 4 41 35 vvcurveto
          158 -81 54 -134 vhcurveto
          hintmask 11101100
          -140 -123 -107 -164 -106 60 -76 133 66 64 26 45 45 hvcurveto
          hintmask 11110100
          -157 -31 -50 -98 -123 hhcurveto
          -66 -31 36 65 12 1 13 2 14 hvcurveto
          -90 hlineto
          -3 -18 -2 -18 -17 vvcurveto
          -94 55 -66 131 vhcurveto
          hintmask 11101100
          47 329 rmoveto
          -83 -32 52 70 93 64 93 110 84 38 -50 -74 -98 -68 -86 -113 hvcurveto
          endchar
        </CharString>
        <CharString name="notequal">
          -134 106 83 129 84 hstem
          11 526 vstem
          75 25 rmoveto
          72 hlineto
          57 81 rlineto
          280 -60 callsubr
          -236 hlineto
          92 129 rlineto
          167 hlineto
          15 84 rlineto
          -122 hlineto
          58 82 rlineto
          -72 hlineto
          -58 -82 rlineto
          -279 hlineto
          -15 -84 rlineto
          234 hlineto
          -92 -129 rlineto
          -165 hlineto
          -15 -83 rlineto
          121 hlineto
          endchar
        </CharString>
        <CharString name="ntilde">
          21 callgsubr
          113 73 -42 73 4 callgsubr
          hintmask 00000000
          hintmask 11010110
          177 35 callgsubr
          hintmask 11001110
          -69 callgsubr
          hintmask 11010110
          -23 -6 -13 -8 -15 -50 -37 31 -56 hhcurveto
          -60 -34 -48 -56 -9 hvcurveto
          hintmask 11001110
          -164 -619 rmoveto
          -92 callgsubr
          -64 -68 -34 -49 -40 vhcurveto
          -7 hlineto
          hintmask 10101110
          71 -64 vlineto
          endchar
        </CharString>
        <CharString name="numbersign">
          9 -21 191 76 155 76 212 -20 hstem
          10 533 vstem
          48 -12 rmoveto
          77 hlineto
          42 191 rlineto
          153 hlineto
          -42 -191 rlineto
          77 hlineto
          42 191 rlineto
          101 76 -85 hlineto
          34 155 rlineto
          96 76 -79 64 callgsubr
          -153 64 callgsubr
          -102 -76 85 hlineto
          -34 -155 rlineto
          -96 -76 80 hlineto
          93 76 rmoveto
          34 155 rlineto
          153 hlineto
          -34 -155 rlineto
          endchar
        </CharString>
        <CharString name="o">
          -28 callsubr
          hstem
          -39 callgsubr
          vstem
          236 -12 -105 callsubr
        </CharString>
        <CharString name="oacute">
          -28 callsubr
          53 132 hstem
          -39 callgsubr
          vstem
          270 591 -94 callgsubr
          -142 -95 callsubr
        </CharString>
        <CharString name="oacute.loclPLK">
          -28 callsubr
          53 132 hstem
          -39 callgsubr
          vstem
          264 591 -53 callsubr
          -74 -95 callsubr
        </CharString>
        <CharString name="obreve">
          -28 callsubr
          68 55 callgsubr
          11 callsubr
          hintmask 11011100
          314 606 -84 callgsubr
          hintmask 11101100
          -51 callgsubr
          hintmask 11011100
          -90 callsubr
          -78 -618 -105 callsubr
        </CharString>
        <CharString name="ocircumflex">
          -28 callsubr
          50 135 -56 56 11 callsubr
          hintmask 11101100
          161 588 -18 callgsubr
          hintmask 11011100
          72 79 rlineto
          hintmask 11101100
          -92 callsubr
          endchar
        </CharString>
        <CharString name="odieresis">
          -28 callsubr
          90 95 hstem
          -39 callgsubr
          vstem
          183 -64 callgsubr
          -151 -95 callsubr
        </CharString>
        <CharString name="oe">
          261 -60 callgsubr
          hstem
          21 92 311 82 311 89 vstem
          240 -12 rmoveto
          92 65 39 60 44 hvcurveto
          -67 34 69 -32 104 hhcurveto
          113 98 63 128 21 hvcurveto
          -86 hlineto
          -85 -14 -64 -33 -70 hhcurveto
          -95 -45 45 95 12 0 12 3 14 hvcurveto
          381 hlineto
          8 44 rlineto
          5 27 3 24 23 vvcurveto
          119 -74 62 -132 -94 -68 -38 -59 -46 vhcurveto
          66 -33 -66 31 -96 hhcurveto
          -205 -71 -179 -174 -134 75 -63 144 hvcurveto
          3 73 rmoveto
          -88 -42 39 93 27 2 29 5 27 hvcurveto
          100 16 50 89 108 hhcurveto
          88 42 -40 -94 -30 -2 -31 -6 -30 hvcurveto
          -96 -18 -51 -83 -104 hhcurveto
          279 251 rmoveto
          98 24 59 55 92 hhcurveto
          72 48 -32 -82 -12 0 -13 -4 -14 hvcurveto
          endchar
        </CharString>
        <CharString name="ogonek">
          -350 -182 65 -65 194 hstemhm
          77 85 hintmask 10100000
          165 -13 callgsubr
        </CharString>
        <CharString name="ograve">
          -28 callsubr
          53 132 hstem
          -39 callgsubr
          vstem
          276 591 -78 callgsubr
          45 -732 -105 callsubr
        </CharString>
        <CharString name="ohorn">
          37 callgsubr
          hstem
          -39 callgsubr
          vstem
          527 686 -100 callgsubr
          endchar
        </CharString>
        <CharString name="ohungarumlaut">
          -28 callsubr
          53 132 hstem
          -39 callgsubr
          vstem
          202 591 -54 callgsubr
          -194 -95 callsubr
        </CharString>
        <CharString name="omacron">
          -28 callsubr
          89 72 hstem
          -39 callgsubr
          vstem
          168 627 -69 callsubr
          55 -711 -105 callsubr
        </CharString>
        <CharString name="one">
          0 73 488 52 73 -20 hstem
          35 442 vstem
          35 hmoveto
          429 29 callsubr
          -164 hlineto
          108 613 rlineto
          -34 hlineto
          -76 -38 -108 -29 -61 -6 -9 -52 rcurveline
          178 hlineto
          -86 -488 rlineto
          -177 hlineto
          endchar
        </CharString>
        <CharString name="oneeighth">
          57 callsubr
          -30 28 callgsubr
          497 46 callsubr
          hintmask 1101101011000000
          58 -12 -36 callsubr
          -673 -370 10 callgsubr
          hintmask 1101110101000000
          -35 callsubr
          549 -396 9 callsubr
          hintmask 1110101010100000
          -24 callsubr
          hintmask 1101101101000000
          -51 -21 -19 -40 -41 vvcurveto
          hintmask 1101110101000000
          -51 34 -38 84 vhcurveto
          hintmask 1110101010100000
          -27 callsubr
          hintmask 1101101101000000
          -31 callgsubr
        </CharString>
        <CharString name="onehalf">
          151 0 56 -47 -21 320 56 -36 28 callgsubr
          530 32 callgsubr
          hintmask 0000000000000000
          hintmask 0101101010000000
          58 -12 -36 callsubr
          -664 -370 10 callgsubr
          hintmask 1001110010000000
          -35 callsubr
          409 -384 rmoveto
          252 hlineto
          10 56 rlineto
          -171 hlineto
          hintmask 1010101110000000
          -47 callsubr
          endchar
        </CharString>
        <CharString name="onequarter">
          60 callgsubr
          28 callgsubr
          54 751 hintmask 00000000
          hintmask 01011011
          54 -12 -36 callsubr
          -664 -370 10 callgsubr
          hintmask 10011101
          -35 callsubr
          550 -384 rmoveto
          63 hlineto
          hintmask 00111011
          14 82 rlineto
          45 hlineto
          hintmask 10011011
          1 callsubr
          hintmask 00111011
          54 callsubr
        </CharString>
        <CharString name="ordfeminine">
          -313 362 58 257 58 -49 -20 61 -20 hstemhm
          55 70 149 62 hintmask 11001100
          336 430 rmoveto
          hintmask 10111100
          9 57 288 0 vhcurveto
          -54 hlineto
          -21 -41 rlineto
          -4 hlineto
          hintmask 11001100
          35 -15 -28 14 -45 hhcurveto
          -96 -75 -95 -148 -88 44 -42 68 40 42 22 42 22 hvcurveto
          4 hlineto
          -1 -6 0 -5 -5 vvcurveto
          -34 25 -14 33 21 16 6 5 7 vhcurveto
          7 39 rlineto
          -27 hlineto
          -13 -7 5 13 hvcurveto
          -154 -10 rmoveto
          -39 -18 27 48 98 37 84 72 46 19 -27 -49 -51 -32 -130 -85 hvcurveto
          endchar
        </CharString>
        <CharString name="ordmasculine">
          -318 361 58 258 58 hstem
          60 70 195 70 vstem
          208 361 rmoveto
          139 48 121 118 92 -51 43 -97 -139 -48 -122 -118 -91 51 -43 97 hvcurveto
          2 58 rmoveto
          -53 -27 24 58 18 1 19 3 18 hvcurveto
          64 11 32 57 68 hhcurveto
          53 27 -25 -58 -16 -1 -17 -3 -16 hvcurveto
          -66 -9 -32 -60 -70 hhcurveto
          endchar
        </CharString>
        <CharString name="orthogonal">
          296 0 66 hstem
          141 637 vstem
          141 hmoveto
          625 hlineto
          12 66 rlineto
          -551 hlineto
          99 559 rlineto
          -74 hlineto
          endchar
        </CharString>
        <CharString name="oslash">
          -72 34 callsubr
          hstem
          45 92 311 92 vstem
          8 -49 -63 callgsubr
        </CharString>
        <CharString name="oslashacute">
          -72 34 callsubr
          53 132 hstem
          45 92 311 92 vstem
          320 591 -94 callgsubr
          -420 -772 -63 callgsubr
        </CharString>
        <CharString name="otilde">
          -28 callsubr
          81 73 -42 73 11 callsubr
          hintmask 00000000
          hintmask 11101100
          155 35 callgsubr
          hintmask 11011100
          -69 callgsubr
          hintmask 11101100
          -23 -6 -13 -8 -15 -50 -37 31 -56 hhcurveto
          -60 -34 -48 -56 -9 hvcurveto
          hintmask 11011100
          81 -631 -105 callsubr
        </CharString>
        <CharString name="p">
          -152 -21 161 73 404 61 -61 73 hstemhm
          102 65 257 92 hintmask 11011100
          0 callgsubr
          -64 -59 -28 -55 -42 hvcurveto
          -6 hlineto
          hintmask 11101100
          71 -65 vlineto
          150 -465 rmoveto
          -82 -33 44 80 hvcurveto
          hintmask 11011100
          63 callsubr
          vhcurveto
          hintmask 11101100
          -151 -58 -122 -114 vhcurveto
          endchar
        </CharString>
        <CharString name="paragraph">
          -146 625 61 hstem
          44 553 vstem
          151 -168 rmoveto
          84 hlineto
          140 793 rlineto
          66 hlineto
          -140 -793 rlineto
          84 hlineto
          140 793 rlineto
          61 hlineto
          11 61 rlineto
          -286 hlineto
          -155 -112 -91 -173 -114 83 -55 98 hvcurveto
          endchar
        </CharString>
        <CharString name="parenleft">
          -350 735 -20 hstem
          51 92 vstem
          160 -157 rmoveto
          59 hlineto
          -46 92 -30 119 119 vvcurveto
          205 100 200 133 157 vhcurveto
          -59 hlineto
          -170 -150 -96 -192 -210 vvcurveto
          -126 37 -117 72 -97 vhcurveto
          endchar
        </CharString>
        <CharString name="parenright">
          -350 735 -20 hstem
          171 92 vstem
          -62 -157 rmoveto
          58 hlineto
          167 150 100 193 212 vvcurveto
          124 -38 118 -72 95 vhcurveto
          -59 hlineto
          46 -91 31 -117 -118 vvcurveto
          -201 -104 -208 -129 -157 vhcurveto
          endchar
        </CharString>
        <CharString name="partialdiff">
          -189 -12 73 321 67 217 69 hstem
          19 89 275 82 vstem
          166 -12 rmoveto
          143 103 148 247 42 hvcurveto
          7 43 4 39 35 vvcurveto
          165 -85 70 -98 -47 -33 -13 -16 -29 vhcurveto
          -13 -74 rlineto
          18 28 35 16 46 hhcurveto
          78 36 -73 -104 -32 -4 -48 -11 -29 hvcurveto
          -4 hlineto
          26 -10 -34 43 -75 hhcurveto
          -99 -127 -116 -185 -90 46 -70 101 hvcurveto
          10 73 rmoveto
          -44 -24 36 57 115 76 113 73 57 28 -46 -37 4 hvcurveto
          -122 -30 -66 -116 -74 hhcurveto
          endchar
        </CharString>
        <CharString name="percent">
          206 -12 59 -26 -21 290 59 -12 59 243 59 -12 -20 hstemhm
          80 79 158 79 92 79 158 79 hintmask 1001101111000000
          220 337 rmoveto
          110 50 81 90 13 hvcurveto
          2 17 1 17 17 vvcurveto
          95 -48 44 -92 -104 -50 -72 -86 -16 vhcurveto
          -4 -21 -2 -23 -22 vvcurveto
          -93 48 -44 92 vhcurveto
          hintmask 0101011111000000
          -127 -337 rmoveto
          87 hlineto
          617 686 -72 callsubr
          -490 -290 rmoveto
          -41 -19 23 57 20 2 21 3 19 hvcurveto
          hintmask 1001101111000000
          55 11 26 48 54 64 callsubr
          hintmask 0101011111000000
          -57 -10 -27 -50 -57 hhcurveto
          hintmask 1010101111000000
          409 -408 rmoveto
          101 51 69 82 17 hvcurveto
          5 23 2 24 24 vvcurveto
          95 -48 44 -92 -99 -51 -66 -81 -18 vhcurveto
          -5 -25 -3 -26 -26 vvcurveto
          -93 48 -44 92 vhcurveto
          -1 59 rmoveto
          -41 -19 23 57 18 1 19 3 19 hvcurveto
          57 10 27 50 55 64 callsubr
          -57 -10 -27 -50 -57 hhcurveto
          endchar
        </CharString>
        <CharString name="period">
          -405 0 108 hstem
          36 119 vstem
          36 hmoveto
          100 5 callgsubr
          -100 hlineto
          endchar
        </CharString>
        <CharString name="periodcentered">
          -350 303 108 hstem
          116 119 vstem
          116 303 -46 callsubr
          endchar
        </CharString>
        <CharString name="perthousand">
          317 -12 58 -25 -21 285 58 -1 58 239 58 -11 -20 hstemhm
          41 74 148 74 4 74 148 74 30 74 148 74 hintmask 0000000000000000
          hintmask 0101101100000000
          172 342 rmoveto
          101 46 75 86 14 hvcurveto
          3 19 1 19 19 vvcurveto
          94 -44 43 -87 -92 -47 -62 -77 -17 vhcurveto
          -6 -26 -3 -28 -27 vvcurveto
          -92 44 -43 87 vhcurveto
          -119 -342 rmoveto
          78 hlineto
          hintmask 0001011000000000
          496 -17 callgsubr
          -79 hlineto
          -377 -286 62 callsubr
          hintmask 0000100100000000
          69 callsubr
          -14 -1 -14 -1 -14 hvcurveto
          hintmask 0001011000000000
          -61 -7 -25 -56 -58 hhcurveto
          hintmask 1010000011000000
          301 -412 rmoveto
          105 46 80 90 11 hvcurveto
          2 16 1 16 16 vvcurveto
          94 -44 43 -87 -96 -46 -67 -81 -16 vhcurveto
          -5 -24 -2 -24 -24 vvcurveto
          -92 44 -43 87 vhcurveto
          hintmask 1010000010110000
          326 hmoveto
          96 47 68 80 16 hvcurveto
          4 23 2 24 23 vvcurveto
          94 -44 43 -87 -102 -46 -76 -88 -13 vhcurveto
          -3 -19 -1 -18 -19 vvcurveto
          -92 44 -43 87 vhcurveto
          -327 58 62 callsubr
          hintmask 0010000001000000
          69 callsubr
          -13 -1 -13 -1 -13 hvcurveto
          hintmask 1010000010110000
          -62 -7 -24 -58 -59 hhcurveto
          326 hmoveto
          -37 -19 23 56 15 1 15 2 15 hvcurveto
          59 8 25 56 54 hhcurveto
          40 18 -23 -57 -16 -1 -17 -2 -17 hvcurveto
          -57 -9 -25 -52 -55 hhcurveto
          endchar
        </CharString>
        <CharString name="peseta">
          411 -12 72 -71 72 -40 -21 54 7 202 83 107 73 -61 73 65 83 hstemhm
          420 97 -41 91 63 88 -33 95 149 96 -61 90 hintmask 0000000000000000
          hintmask 0100110101011000
          563 -11 rmoveto
          24 30 6 8 19 hvcurveto
          hintmask 0001110110011000
          9 51 rlineto
          hintmask 1000101110011000
          -39 22 51 -27 91 hhcurveto
          110 106 56 128 hvcurveto
          161 -245 -48 98 vvcurveto
          27 18 55 88 vhcurveto
          hintmask 1000101110010100
          58 20 -30 -35 -5 0 -6 -3 -14 hvcurveto
          86 hlineto
          3 7 4 22 14 vvcurveto
          67 -52 53 -108 vhcurveto
          hintmask 0010110110011000
          -31 -29 -4 -8 -26 hvcurveto
          -166 hlineto
          34 145 rlineto
          -94 hlineto
          -27 -145 rlineto
          -38 hlineto
          96 -62 64 -128 vhcurveto
          -187 hlineto
          -121 -686 rlineto
          95 hlineto
          46 263 rlineto
          112 hlineto
          hintmask 0100110101011000
          117 90 75 115 29 hvcurveto
          33 hlineto
          -62 -353 rlineto
          -2 -10 -1 -9 -9 vvcurveto
          -45 22 -38 65 vhcurveto
          hintmask 1000110110101000
          -388 357 rmoveto
          45 257 rlineto
          97 hlineto
          69 34 -34 -60 -100 -66 -63 -82 hvcurveto
          540 -286 rmoveto
          -54 -40 22 53 6 1 6 3 17 hvcurveto
          -84 hlineto
          hintmask 0100110101101000
          -5 -19 -3 -20 -12 vvcurveto
          -18 4 -18 8 -16 vhcurveto
          -38 hlineto
          -26 -11 11 23 4 0 4 5 30 hvcurveto
          hintmask 1000110110011000
          57 320 rlineto
          85 hlineto
          -16 -24 -13 -32 -29 -154 244 51 -112 vvcurveto
          hintmask 1000110110101000
          -61 -57 -32 -60 vhcurveto
          endchar
        </CharString>
        <CharString name="pi">
          7 21 -21 453 73 hstem
          430 88 vstem
          45 hmoveto
          92 hlineto
          56 89 74 235 32 129 rrcurveto
          197 hlineto
          -54 -306 rlineto
          -8 -48 -4 -37 -26 vvcurveto
          -17 2 -13 3 -6 vhcurveto
          86 hlineto
          -2 9 -1 11 13 vvcurveto
          28 5 39 10 56 vhcurveto
          52 297 rlineto
          97 hlineto
          23 73 rlineto
          -455 hlineto
          -96 -58 -11 -19 -31 hvcurveto
          5 -56 rlineto
          9 27 38 4 70 hhcurveto
          -26 -129 -73 -218 -61 -106 rrcurveto
          endchar
        </CharString>
        <CharString name="plus">
          -99 21 -21 213 84 hstem
          48 487 vstem
          202 hmoveto
          87 hlineto
          38 1 callgsubr
          endchar
        </CharString>
        <CharString name="plusminus">
          -134 0 83 257 84 hstem
          -18 547 vstem
          197 127 rmoveto
          87 hlineto
          37 1 callgsubr
          -252 -340 6 callsubr
        </CharString>
        <CharString name="product">
          140 643 80 hstem
          64 793 vstem
          64 -128 rmoveto
          95 hlineto
          136 771 rlineto
          352 hlineto
          -136 -771 rlineto
          94 hlineto
          136 771 rlineto
          101 hlineto
          15 80 rlineto
          -741 hlineto
          -15 -80 rlineto
          99 hlineto
          endchar
        </CharString>
        <CharString name="q">
          -152 -21 161 -47 callgsubr
          hstemhm
          21 91 hintmask 11101000
          315 -173 rmoveto
          88 hlineto
          hintmask 11011000
          123 699 rlineto
          -66 hlineto
          hintmask 11101000
          -23 -71 rlineto
          -6 hlineto
          55 -28 -58 28 -73 hhcurveto
          -149 -102 -144 -215 -132 64 -59 102 70 52 27 45 41 hvcurveto
          6 hlineto
          -136 1 rmoveto
          -74 -34 33 88 155 58 128 121 76 32 -47 -86 -135 -60 -136 -119 hvcurveto
          endchar
        </CharString>
        <CharString name="question">
          0 108 513 77 hstem
          74 89 273 94 vstem
          202 180 rmoveto
          87 hlineto
          7 41 rlineto
          18 106 216 13 205 vvcurveto
          95 -75 58 -113 -172 -92 -112 -127 -4 vhcurveto
          89 hlineto
          13 7 149 166 84 16 -51 -39 vhcurveto
          -1 -145 -198 -10 -25 -140 rrcurveto
          -45 -236 -46 callsubr
          endchar
        </CharString>
        <CharString name="questiondown">
          -72 -172 77 513 108 hstem
          52 94 273 89 vstem
          296 418 -46 callsubr
          -75 -698 rmoveto
          172 92 112 127 4 hvcurveto
          -89 hlineto
          -13 -7 -149 -166 -84 -16 51 39 vhcurveto
          1 145 198 10 25 140 10 56 rcurveline
          -87 hlineto
          -7 -41 rlineto
          -18 -106 -216 -13 -205 vvcurveto
          -95 75 -58 113 vhcurveto
          endchar
        </CharString>
        <CharString name="quotedbl">
          -328 408 278 hstemhm
          82 51 111 51 hintmask 00000000
          hintmask 11100000
          82 408 4 callsubr
          162 -132 4 callsubr
          endchar
        </CharString>
        <CharString name="quotedblbase">
          -350 0 108 hstem
          12 296 vstem
          12 -134 -30 callsubr
          89 -134 -30 callsubr
          endchar
        </CharString>
        <CharString name="quotedblleft">
          -350 444 108 134 -20 hstem
          45 295 vstem
          45 444 -6 callsubr
          134 -99 -6 callsubr
          endchar
        </CharString>
        <CharString name="quotedblright">
          -350 578 108 hstem
          78 295 24 callgsubr
          88 -134 rmoveto
          52 hlineto
          73 143 18 99 rlineto
          -100 hlineto
          -19 -108 rlineto
          40 hlineto
          endchar
        </CharString>
        <CharString name="quoteleft">
          -461 444 108 134 -20 hstem
          86 143 vstem
          86 444 -6 callsubr
          endchar
        </CharString>
        <CharString name="quotereversed">
          -461 578 108 hstem
          69 118 vstem
          94 454 rmoveto
          52 hlineto
          -18 124 rlineto
          40 5 callgsubr
          -100 hlineto
          -18 -99 rlineto
          endchar
        </CharString>
        <CharString name="quoteright">
          -461 578 108 hstem
          78 143 24 callgsubr
          endchar
        </CharString>
        <CharString name="quotesinglbase">
          -461 0 108 hstem
          12 143 vstem
          12 -134 -30 callsubr
          endchar
        </CharString>
        <CharString name="quotesingle">
          -492 686 -20 hstem
          82 51 vstem
          82 408 4 callsubr
          endchar
        </CharString>
        <CharString name="r">
          -5 callsubr
          hstemhm
          13 348 hintmask 11001000
          13 hmoveto
          88 hlineto
          53 301 rlineto
          106 19 69 38 67 hhcurveto
          37 hlineto
          hintmask 10011000
          15 85 rlineto
          hintmask 11001000
          0 -18 8 -28 -72 -43 -47 -44 -25 vhcurveto
          -6 hlineto
          hintmask 10101000
          4 79 rlineto
          -67 hlineto
          endchar
        </CharString>
        <CharString name="racute">
          -5 callsubr
          81 132 hstemhm
          13 378 hintmask 11001100
          181 591 -94 callgsubr
          -276 -723 -67 callgsubr
        </CharString>
        <CharString name="radical">
          -134 -148 1005 hstem
          24 612 vstem
          207 -148 rmoveto
          90 hlineto
          339 1005 rlineto
          -71 hlineto
          -293 -887 -2 21 -1 25 -5 28 rlinecurve
          -66 347 -174 -68 9 -60 83 30 rlineto
          endchar
        </CharString>
        <CharString name="rcaron">
          -5 callsubr
          78 135 hstemhm
          13 382 hintmask 11001100
          182 588 -93 callsubr
          -87 -723 -67 callgsubr
        </CharString>
        <CharString name="rcommaaccent">
          -350 -149 91 79 7 callgsubr
          hstemhm
          -29 390 -12 callgsubr
          -135 -756 -70 callgsubr
        </CharString>
        <CharString name="registered">
          54 -12 47 263 56 139 56 102 47 hstem
          13 49 162 68 179 69 134 -44 callsubr
          -144 103 rmoveto
          68 160 111 hlineto
          80 -160 rlineto
          72 hlineto
          -87 171 rlineto
          48 19 24 43 55 vvcurveto
          72 -42 51 -84 vhcurveto
          -190 hlineto
          68 -195 rmoveto
          139 112 vlineto
          43 24 -23 -44 -46 -27 -26 -40 hvcurveto
          endchar
        </CharString>
        <CharString name="revlogicalnot">
          -99 360 93 hstem
          42 518 vstem
          42 197 rmoveto
          84 hlineto
          29 163 rlineto
          389 hlineto
          16 93 rlineto
          -473 hlineto
          endchar
        </CharString>
        <CharString name="ring">
          -350 566 45 102 45 hstem
          70 46 103 46 vstem
          154 566 -61 callsubr
          endchar
        </CharString>
        <CharString name="s">
          47 callgsubr
          -16 callsubr
          hintmask 00000000
          hintmask 11101000
          212 -12 rmoveto
          117 108 55 128 hvcurveto
          hintmask 11011000
          167 -284 -51 101 vvcurveto
          27 21 50 105 vhcurveto
          hintmask 11010100
          74 24 -31 -36 -8 -1 -7 -2 -8 hvcurveto
          86 hlineto
          3 6 4 21 14 vvcurveto
          68 -63 54 -127 -124 -94 -66 -104 vhcurveto
          hintmask 11011000
          -158 283 53 -116 vvcurveto
          -56 -64 -31 -73 vhcurveto
          hintmask 11101000
          15 callgsubr
        </CharString>
        <CharString name="sacute">
          47 callgsubr
          53 132 -16 callsubr
          hintmask 11101100
          264 591 -94 callgsubr
          hintmask 11110100
          -160 -735 -91 callsubr
          endchar
        </CharString>
        <CharString name="sacute.loclPLK">
          47 callgsubr
          53 132 -16 callsubr
          hintmask 11101100
          258 591 -53 callsubr
          hintmask 11110100
          -92 -735 -91 callsubr
          endchar
        </CharString>
        <CharString name="scaron">
          47 callgsubr
          50 135 -16 callsubr
          hintmask 11101100
          265 588 -93 callsubr
          hintmask 11110100
          29 -735 -91 callsubr
          endchar
        </CharString>
        <CharString name="scedilla">
          -183 48 callsubr
          26 70 405 73 hstemhm
          1 90 -32 94 76 73 40 95 -60 90 hintmask 0000000000000000
          hintmask 1001101101000000
          460 375 rmoveto
          3 6 4 21 14 vvcurveto
          68 -63 54 -127 -124 -94 -66 -104 vhcurveto
          hintmask 1001101110000000
          -158 283 53 -116 vvcurveto
          -56 -64 -31 -73 vhcurveto
          hintmask 1001110110000000
          -65 -49 23 54 4 1 12 3 11 hvcurveto
          -87 hlineto
          0 -7 -24 -22 vvcurveto
          -62 47 -55 119 -11 vhcurveto
          hintmask 1011101110000000
          -24 -67 -42 callgsubr
          hintmask 0101101110000000
          -9 -49 rlineto
          hintmask 1011101110000000
          -21 callsubr
          9 24 rlineto
          110 5 98 56 122 167 -284 -51 101 vvcurveto
          27 21 50 105 vhcurveto
          hintmask 1001101101000000
          74 24 -31 -36 -8 -1 -7 -2 -8 hvcurveto
          endchar
        </CharString>
        <CharString name="scircumflex">
          47 callgsubr
          50 135 -56 56 -16 callsubr
          hintmask 11100110
          155 588 -18 callgsubr
          hintmask 11010110
          72 79 rlineto
          hintmask 11101010
          -97 callgsubr
          -72 -735 rmoveto
          117 108 55 128 hvcurveto
          hintmask 11100110
          167 -284 -51 101 vvcurveto
          27 21 50 105 vhcurveto
          hintmask 11100101
          74 24 -31 -36 -8 -1 -7 -2 -8 hvcurveto
          86 hlineto
          3 6 4 21 14 vvcurveto
          68 -63 54 -127 -124 -94 -66 -104 vhcurveto
          hintmask 11100110
          -158 283 53 -116 vvcurveto
          -56 -64 -31 -73 vhcurveto
          hintmask 11101010
          15 callgsubr
        </CharString>
        <CharString name="scommaaccent">
          -183 -149 91 46 72 405 73 -16 callsubr
          hintmask 00000000
          hintmask 11110100
          212 -12 -91 callsubr
          -94 24 callsubr
        </CharString>
        <CharString name="second">
          -329 515 171 hstem
          76 309 vstem
          76 515 40 callsubr
          87 -171 40 callsubr
          endchar
        </CharString>
        <CharString name="section">
          -182 72 736 72 hstemhm
          2 96 -55 93 -31 95 155 95 -31 92 -54 96 hintmask 00000000
          hintmask 11100100
          201 -182 rmoveto
          153 96 69 109 50 -27 32 -36 26 hvcurveto
          hintmask 11001010
          63 28 61 52 79 176 -311 -24 120 vvcurveto
          17 8 74 136 vhcurveto
          hintmask 11001001
          86 27 -33 -36 -4 0 -5 -3 -13 hvcurveto
          92 hlineto
          3 6 4 20 13 vvcurveto
          69 -66 55 -133 -155 -94 -69 -111 -49 26 -33 36 -25 vhcurveto
          hintmask 11010100
          -62 -27 -62 -52 -79 -176 312 24 -121 vvcurveto
          -14 -7 -76 -137 vhcurveto
          hintmask 11100010
          -86 -27 32 37 4 0 4 3 14 hvcurveto
          -92 hlineto
          -3 -6 -4 -20 -12 vvcurveto
          hintmask 11100100
          -70 65 -55 134 vhcurveto
          hintmask 11010010
          129 318 rmoveto
          -91 39 -103 24 80 vvcurveto
          47 32 34 56 19 vhcurveto
          92 -38 103 -25 -79 vvcurveto
          -48 -34 -33 -55 -20 vhcurveto
          endchar
        </CharString>
        <CharString name="semicolon">
          -405 0 108 310 108 hstem
          12 217 vstem
          110 418 -46 callsubr
          -117 -660 -30 callsubr
          endchar
        </CharString>
        <CharString name="seven">
          21 -21 602 84 hstem
          90 501 vstem
          91 hmoveto
          102 hlineto
          2 16 3 16 3 15 53 250 175 189 153 147 9 53 rcurveline
          -486 hlineto
          -15 -84 rlineto
          353 hlineto
          -134 -144 -176 -221 -42 -237 rrcurveto
          endchar
        </CharString>
        <CharString name="seveneighths">
          57 callsubr
          272 56 12 -20 hstemhm
          473 46 callsubr
          hintmask 1111001100000000
          20 -12 rmoveto
          80 hlineto
          hintmask 1110101100000000
          671 710 rlineto
          -80 hlineto
          -569 -370 rmoveto
          71 hlineto
          hintmask 1111001100000000
          15 129 87 102 90 85 7 42 rcurveline
          -260 hlineto
          -10 -56 rlineto
          179 hlineto
          hintmask 1110101100000000
          -72 -74 -85 -104 -22 -124 rrcurveto
          hintmask 1111010100000000
          469 -340 9 callsubr
          hintmask 1111001010000000
          -24 callsubr
          hintmask 1111010100000000
          33 callgsubr
          hintmask 1111001010000000
          -27 callsubr
          hintmask 1111010100000000
          -31 callgsubr
        </CharString>
        <CharString name="six">
          -12 73 308 72 184 73 hstemhm
          22 89 296 93 -67 92 hintmask 11111000
          237 -12 rmoveto
          140 123 107 164 106 -60 76 -133 -66 -64 -26 -45 -45 hvcurveto
          hintmask 11110100
          157 31 50 98 123 hhcurveto
          66 31 -36 -65 -12 -1 -13 -2 -14 hvcurveto
          90 hlineto
          3 18 2 18 17 vvcurveto
          94 -55 66 -131 -157 -101 -95 -280 -47 vhcurveto
          -8 -47 -4 -41 -35 vvcurveto
          hintmask 11111000
          -158 81 -54 134 vhcurveto
          -4 73 rmoveto
          -84 -38 50 74 98 68 86 113 83 32 -52 -70 -93 -64 -93 -110 hvcurveto
          endchar
        </CharString>
        <CharString name="slash">
          -405 735 -20 hstem
          -68 414 vstem
          -68 -49 rmoveto
          70 hlineto
          344 784 rlineto
          -70 hlineto
          endchar
        </CharString>
        <CharString name="space">
          -405 endchar
        </CharString>
        <CharString name="sterling">
          0 79 225 72 249 38 callgsubr
          52 225 rlineto
          166 hlineto
          12 72 rlineto
          -165 hlineto
          25 139 -8 callgsubr
          -22 -123 rlineto
          -90 hlineto
          -12 -72 rlineto
          90 hlineto
          -40 -225 rlineto
          -75 hlineto
          endchar
        </CharString>
        <CharString name="summation">
          30 -128 88 685 78 -67 67 hstemhm
          -36 762 hintmask 11010000
          -36 -128 rmoveto
          630 hlineto
          16 88 rlineto
          -501 hlineto
          1 4 361 344 -230 333 1 4 rlineto
          470 hlineto
          14 78 rlineto
          -602 hlineto
          hintmask 10110000
          -12 -67 245 -357 -381 -364 rlineto
          endchar
        </CharString>
        <CharString name="t">
          -405 -11 48 callgsubr
          hintmask 00000000
          hintmask 11100000
          135 -11 -77 callgsubr
          endchar
        </CharString>
        <CharString name="tbar">
          -405 -11 72 202 62 128 73 hstemhm
          7 288 -254 90 hintmask 11110000
          282 453 rmoveto
          13 73 rlineto
          -89 hlineto
          34 146 rlineto
          -96 hlineto
          hintmask 11101000
          -26 -146 rlineto
          -64 hlineto
          -13 -73 rlineto
          64 hlineto
          -22 -128 rlineto
          -65 hlineto
          -11 -62 rlineto
          65 hlineto
          -22 -126 rlineto
          -5 -27 -4 -26 -12 vvcurveto
          -45 23 -38 71 21 30 6 8 17 vhcurveto
          10 58 rlineto
          -49 hlineto
          -23 -10 11 23 2 0 6 1 5 hvcurveto
          27 155 rlineto
          89 hlineto
          11 62 rlineto
          -89 hlineto
          23 128 rlineto
          endchar
        </CharString>
        <CharString name="tcaron">
          -308 -11 72 392 73 106 91 hstemhm
          41 90 -90 410 hintmask 11101000
          331 527 rmoveto
          44 hlineto
          -11 callgsubr
          34 hlineto
          hintmask 11110000
          -249 -643 -77 callgsubr
          endchar
        </CharString>
        <CharString name="thorn">
          -152 -21 161 -32 callsubr
          185 -20 hstem
          424 92 vstem
          0 callgsubr
          -60 -53 -24 -48 -41 hvcurveto
          -5 hlineto
          45 257 -72 callsubr
          116 -662 rmoveto
          -82 -33 44 80 63 callsubr
          -151 -58 -122 -114 hvcurveto
          endchar
        </CharString>
        <CharString name="three">
          -12 73 251 73 240 73 hstemhm
          17 90 310 90 -50 93 hintmask 11111000
          246 -12 rmoveto
          143 118 85 137 75 -42 47 -60 20 hvcurveto
          1 4 rlineto
          hintmask 11110100
          79 31 65 50 100 vvcurveto
          104 -83 57 -130 -123 -108 -72 -127 -16 vhcurveto
          -1 -7 rlineto
          89 hlineto
          1 9 rlineto
          64 7 57 60 97 hhcurveto
          64 53 -28 -66 -99 -84 -47 -81 hvcurveto
          -75 hlineto
          -13 -73 rlineto
          72 hlineto
          hintmask 11111000
          74 67 -20 -76 -108 -84 -47 -97 -83 -46 34 66 13 3 19 2 9 hvcurveto
          -89 hlineto
          -5 -18 -1 -18 -13 vvcurveto
          -101 78 -64 151 vhcurveto
          endchar
        </CharString>
        <CharString name="threeeighths">
          57 callsubr
          -30 55 105 56 99 55 hstemhm
          67 -21 callgsubr
          154 46 callsubr
          hintmask 1101111010011000
          55 -12 -36 callsubr
          -536 -370 -3 callsubr
          hintmask 1101110101011000
          38 18 28 -70 callsubr
          hintmask 1101111010011000
          -68 callsubr
          -54 43 -33 80 vhcurveto
          hintmask 1101111010101000
          432 -340 9 callsubr
          hintmask 1110111010010100
          -24 callsubr
          hintmask 1101111010101000
          33 callgsubr
          hintmask 1110111010010100
          -27 callsubr
          hintmask 1101111010101000
          -31 callgsubr
        </CharString>
        <CharString name="threequarters">
          60 callgsubr
          55 105 56 99 55 hstemhm
          76 -21 callgsubr
          hintmask 0000000000000000
          hintmask 0101111010000000
          67 -12 -36 callsubr
          -539 -370 -3 callsubr
          hintmask 1001110101000000
          38 18 28 -70 callsubr
          hintmask 1001111010000000
          -68 callsubr
          hintmask 0101111010000000
          -54 43 -33 80 vhcurveto
          hintmask 1001111010000000
          429 -328 rmoveto
          63 hlineto
          hintmask 0011111010000000
          14 82 rlineto
          45 hlineto
          hintmask 1001111010000000
          1 callsubr
          hintmask 0011111010000000
          54 callsubr
        </CharString>
        <CharString name="tilde">
          -350 619 61 callsubr
          -6 345 hintmask 00000000
          hintmask 10100000
          -6 35 callgsubr
          hintmask 01100000
          -69 callgsubr
          hintmask 10100000
          -23 -6 -13 -8 -15 -50 -37 31 -56 hhcurveto
          -60 -34 -48 -56 -9 hvcurveto
          endchar
        </CharString>
        <CharString name="trademark">
          317 282 89 253 63 hstem
          104 841 vstem
          186 283 rmoveto
          67 hlineto
          60 341 rlineto
          141 hlineto
          11 63 rlineto
          -350 hlineto
          -11 -63 rlineto
          142 hlineto
          203 -342 rmoveto
          61 hlineto
          58 329 rlineto
          5 hlineto
          53 -329 rlineto
          64 hlineto
          170 329 rlineto
          5 hlineto
          -58 -329 rlineto
          67 hlineto
          71 405 rlineto
          -108 hlineto
          -161 -316 rlineto
          -5 hlineto
          -49 316 rlineto
          -102 hlineto
          endchar
        </CharString>
        <CharString name="two">
          0 84 538 76 hstem
          454 92 vstem
          -12 hmoveto
          470 hlineto
          15 84 rlineto
          -363 hlineto
          7 11 9 11 13 13 rrcurveto
          127 123 280 91 200 vvcurveto
          116 -80 49 -117 -135 -129 -72 -176 -8 vhcurveto
          88 hlineto
          8 41 rlineto
          71 14 45 60 109 hhcurveto
          86 27 -42 -41 -207 -421 -72 -40 -231 hvcurveto
          endchar
        </CharString>
        <CharString name="u">
          -45 callsubr
          -50 callgsubr
          hintmask 10111000
          191 -12 rmoveto
          -67 callsubr
          hintmask 01111000
          -79 callsubr
          hintmask 10111000
          -103 callsubr
          vhcurveto
          endchar
        </CharString>
        <CharString name="uacute">
          -17 callsubr
          283 591 -94 callgsubr
          -200 -5 callgsubr
          hintmask 01111100
          -79 callsubr
          hintmask 10111100
          -103 callsubr
          vhcurveto
          endchar
        </CharString>
        <CharString name="ubreve">
          -45 callsubr
          100 55 callgsubr
          -50 callgsubr
          hintmask 10101110
          327 606 -84 callgsubr
          hintmask 10110110
          -51 callgsubr
          hintmask 10101110
          -90 callsubr
          -136 -618 rmoveto
          -67 callsubr
          hintmask 01101110
          -79 callsubr
          hintmask 10101110
          -103 callsubr
          vhcurveto
          endchar
        </CharString>
        <CharString name="ucircumflex">
          -45 callsubr
          82 135 -56 56 -50 callgsubr
          hintmask 10110110
          174 588 -18 callgsubr
          hintmask 10101110
          72 79 rlineto
          hintmask 10110110
          -97 callgsubr
          -112 -5 callgsubr
          hintmask 01110110
          -79 callsubr
          hintmask 10110110
          -103 callsubr
          vhcurveto
          endchar
        </CharString>
        <CharString name="udieresis">
          -45 callsubr
          122 95 -50 callgsubr
          hintmask 10111100
          196 628 -54 callsubr
          hintmask 01111100
          -79 callsubr
          hintmask 10111100
          -103 callsubr
          vhcurveto
          endchar
        </CharString>
        <CharString name="ugrave">
          -17 callsubr
          289 591 -78 callgsubr
          -13 -732 rmoveto
          -67 callsubr
          hintmask 01111100
          -79 callsubr
          hintmask 10111100
          -103 callsubr
          vhcurveto
          endchar
        </CharString>
        <CharString name="uhorn">
          -45 callsubr
          109 58 callsubr
          hintmask 10111100
          554 723 -61 callgsubr
          -21 -54 -47 -28 -71 -7 rrcurveto
          -1 hlineto
          -53 -301 rlineto
          -103 callsubr
          64 68 34 49 40 vhcurveto
          7 hlineto
          hintmask 01111100
          -40 callgsubr
          endchar
        </CharString>
        <CharString name="uhungarumlaut">
          -17 callsubr
          215 591 -54 callgsubr
          -252 -5 callgsubr
          hintmask 01111100
          -79 callsubr
          hintmask 10111100
          -103 callsubr
          vhcurveto
          endchar
        </CharString>
        <CharString name="umacron">
          -45 callsubr
          121 72 -50 callgsubr
          hintmask 10111100
          181 627 -69 callsubr
          -3 -711 rmoveto
          -67 callsubr
          hintmask 01111100
          -79 callsubr
          hintmask 10111100
          -103 callsubr
          vhcurveto
          endchar
        </CharString>
        <CharString name="underscore">
          -124 53 hstem
          -67 564 vstem
          -67 -124 rmoveto
          555 hlineto
          9 53 rlineto
          -556 hlineto
          endchar
        </CharString>
        <CharString name="underscoredbl">
          -131 -217 53 40 53 hstem
          -75 575 vstem
          -60 -124 rmoveto
          551 hlineto
          9 53 rlineto
          -551 hlineto
          -24 -146 rmoveto
          550 hlineto
          9 53 rlineto
          -550 hlineto
          endchar
        </CharString>
        <CharString name="uni00A0">
          -405 endchar
        </CharString>
        <CharString name="uni00AD">
          14 callsubr
        </CharString>
        <CharString name="uni00B2">
          -350 335 56 252 56 hstem
          83 32 callgsubr
          vstem
          37 335 rmoveto
          252 hlineto
          10 56 rlineto
          -171 hlineto
          -47 callsubr
          endchar
        </CharString>
        <CharString name="uni00B3">
          -350 328 55 105 56 99 55 hstemhm
          48 -21 callgsubr
          hintmask 11110100
          171 328 rmoveto
          74 65 47 73 33 -16 23 -29 15 hvcurveto
          2 vlineto
          hintmask 11101010
          39 18 27 -70 callsubr
          hintmask 11110100
          -68 callsubr
          -54 43 -33 80 vhcurveto
          endchar
        </CharString>
        <CharString name="uni00B5">
          -50 callsubr
        </CharString>
        <CharString name="uni00B9">
          -350 328 56 225 40 37 -20 hstem
          51 241 vstem
          51 328 10 callgsubr
          53 302 rlineto
          -30 hlineto
          -37 -19 -57 -14 -33 -4 -8 -40 rcurveline
          88 hlineto
          -39 -225 -72 callsubr
          endchar
        </CharString>
        <CharString name="uni0162">
          -72 48 callsubr
          57 -21 603 83 hstemhm
          270 73 hintmask 10111100
          82 686 rmoveto
          -15 -83 rlineto
          236 hlineto
          -106 -603 rlineto
          15 hlineto
          -28 -77 -42 callgsubr
          hintmask 01111100
          -9 -49 rlineto
          hintmask 10111100
          -21 callsubr
          13 36 rlineto
          18 hlineto
          106 603 rlineto
          236 -60 callsubr
          endchar
        </CharString>
        <CharString name="uni0163">
          -405 48 callsubr
          25 48 callgsubr
          -13 73 hintmask 10011010
          193 453 rmoveto
          89 29 callsubr
          -89 hlineto
          34 146 rlineto
          -96 hlineto
          hintmask 10111100
          -26 -146 rlineto
          -64 hlineto
          -13 -73 rlineto
          64 hlineto
          -55 -316 rlineto
          -5 -27 -4 -26 -12 vvcurveto
          -24 6 -22 17 -15 vhcurveto
          hintmask 10111010
          -32 -88 -42 callgsubr
          hintmask 01011010
          -9 -49 rlineto
          hintmask 10111010
          -21 callsubr
          hintmask 10011100
          9 26 rlineto
          -1 6 5 0 6 hhcurveto
          21 30 6 8 17 hvcurveto
          10 58 rlineto
          -49 hlineto
          -23 -10 11 23 2 0 6 1 5 hvcurveto
          endchar
        </CharString>
        <CharString name="uni018F">
          75 -12 81 214 88 246 81 hstem
          43 96 491 96 vstem
          329 -12 rmoveto
          117 91 33 65 65 hvcurveto
          78 78 46 147 114 vvcurveto
          173 -112 100 -180 -93 -75 -16 -31 -57 vhcurveto
          -72 -40 -44 -65 -16 -92 rrcurveto
          91 hlineto
          109 19 83 54 149 hhcurveto
          131 80 -57 -130 -18 -2 -20 -3 -21 hvcurveto
          -563 hlineto
          -11 -62 rlineto
          -5 -27 -3 -26 -25 vvcurveto
          -154 103 -89 183 vhcurveto
          13 81 rmoveto
          -123 -80 45 115 17 2 18 3 19 hvcurveto
          462 hlineto
          -154 -43 -79 -60 -142 hhcurveto
          endchar
        </CharString>
        <CharString name="uni019D">
          39 -182 69 134 53 callsubr
          -101 805 hintmask 11011000
          -34 27 callgsubr
          85 481 rlineto
          hintmask 11101000
          6 37 7 37 6 37 5 1 rcurveline
          16 -28 15 -29 16 -28 250 -447 rcurveline
          81 37 callsubr
          -89 hlineto
          -81 -460 -11 -62 -4 -1 -8 15 -9 14 -8 15 rlinecurve
          -270 479 rlineto
          -85 hlineto
          -132 -751 rlineto
          -31 -5 -18 -17 -31 hhcurveto
          -44 hlineto
          -10 -57 rlineto
          hintmask 11011000
          -31 callsubr
        </CharString>
        <CharString name="uni01C4">
          650 0 83 520 83 47 135 51 callsubr
          1072 733 -93 callsubr
          -972 -868 rmoveto
          -75 callsubr
          -234 hlineto
          546 -686 rmoveto
          -78 callsubr
          -566 34 -75 callgsubr
          endchar
        </CharString>
        <CharString name="uni01C5">
          539 0 73 -73 83 370 73 62 135 -120 83 hstemhm
          586 98 hintmask 00000000
          hintmask 10110100
          987 588 -93 callsubr
          -887 -723 rmoveto
          274 hlineto
          117 99 39 72 70 hvcurveto
          67 71 39 103 129 vvcurveto
          hintmask 01101100
          188 -115 84 -196 vhcurveto
          -234 hlineto
          -11 -603 -75 callgsubr
          hintmask 10101100
          409 -83 rmoveto
          -82 callsubr
          endchar
        </CharString>
        <CharString name="uni01C6">
          373 -12 73 -61 73 380 73 -61 73 50 135 -36 callgsubr
          622 600 -93 callsubr
          -209 -723 rmoveto
          -82 callsubr
          hintmask 10011100
          -314 14 -41 callsubr
        </CharString>
        <CharString name="uni01C7">
          373 -12 81 -69 83 603 -20 hstemhm
          553 95 hintmask 01110000
          -30 callgsubr
          hintmask 10110000
          590 -698 -81 callgsubr
        </CharString>
        <CharString name="uni01C8">
          95 -182 69 113 83 443 -20 119 98 -37 -20 hstemhm
          18 766 hintmask 11110100
          679 16 callsubr
          -678 -723 rmoveto
          -2 callsubr
          hintmask 11101100
          106 603 -37 callgsubr
          377 -868 -80 callsubr
        </CharString>
        <CharString name="uni01C9">
          -239 44 callsubr
          119 98 hstem
          13 437 51 callgsubr
          -24 callgsubr
          205 -98 -23 callsubr
          -180 -905 -80 callsubr
        </CharString>
        <CharString name="uni01CA">
          539 -12 81 -48 53 callsubr
          719 95 hintmask 00000000
          hintmask 01101000
          18 hmoveto
          89 hlineto
          -87 callgsubr
          hintmask 10011000
          756 -698 -81 callgsubr
        </CharString>
        <CharString name="uni01CB">
          261 44 callsubr
          25.5 154.5 -61 98 hstemhm
          18 932 hintmask 11101100
          845 16 callsubr
          -844 -723 rmoveto
          89 hlineto
          hintmask 11010100
          -87 callgsubr
          543 -868 -25 callgsubr
          hintmask 11101100
          104 587 -72 callsubr
          -105 -591 rlineto
          -31 -5 -18 -17 -31 hhcurveto
          -44 hlineto
          -10 -57 rlineto
          hintmask 11010100
          -31 callsubr
        </CharString>
        <CharString name="uni01CC">
          95 -182 69 134 -1 callsubr
          119 98 4 callgsubr
          hintmask 11101110
          679 16 callsubr
          -683 -723 rmoveto
          -92 callgsubr
          -64 -68 -34 -49 -40 vhcurveto
          -7 hlineto
          hintmask 11011110
          71 -64 vlineto
          410 -708 -80 callsubr
        </CharString>
        <CharString name="uni01CD">
          26 callsubr
          hstem
          -41 654 vstem
          378 733 -93 callsubr
          -337 -868 -101 callsubr
        </CharString>
        <CharString name="uni01CE">
          -58 callgsubr
          82 135 36 callsubr
          358 588 rmoveto
          129 135 rlineto
          -94 hlineto
          -70 -79 -45 79 rlineto
          -86 hlineto
          82 -135 rlineto
          166 -500 rmoveto
          hintmask 10111100
          -66 callgsubr
          hintmask 11011100
          -106 callsubr
          -44 callgsubr
          -80 callgsubr
        </CharString>
        <CharString name="uni01CF">
          -4 callgsubr
          67 135 hstem
          31 348 vstem
          166 733 -93 callsubr
          -53 -868 -57 callsubr
        </CharString>
        <CharString name="uni01D0">
          -29 callsubr
          82 135 hstem
          35 319 vstem
          141 588 -93 callsubr
          -24 -20 callgsubr
        </CharString>
        <CharString name="uni01D1">
          44 callgsubr
          -49 callgsubr
          403 733 -93 callsubr
          13 -879 -107 callgsubr
          endchar
        </CharString>
        <CharString name="uni01D2">
          -28 callsubr
          50 135 hstem
          -39 callgsubr
          vstem
          271 588 -93 callsubr
          47 -95 callsubr
        </CharString>
        <CharString name="uni01D3">
          -49 callsubr
          67 135 23 callgsubr
          388 733 -93 callsubr
          12 -880 -105 callgsubr
          endchar
        </CharString>
        <CharString name="uni01D4">
          -45 callsubr
          82 135 -50 callgsubr
          hintmask 10111100
          284 588 -93 callsubr
          -11 -5 callgsubr
          hintmask 01111100
          -79 callsubr
          hintmask 10111100
          -103 callsubr
          vhcurveto
          endchar
        </CharString>
        <CharString name="uni01D5">
          -49 callsubr
          107 95 71 72 23 callgsubr
          315 939 -69 callsubr
          -28 -238 -91 callgsubr
          -186 -880 -105 callgsubr
          endchar
        </CharString>
        <CharString name="uni01D6">
          -45 callsubr
          122 95 71 72 -50 callgsubr
          hintmask 10111110
          211 794 -69 callsubr
          -28 -238 -83 callsubr
        </CharString>
        <CharString name="uni01D7">
          -49 callsubr
          107 95 35 132 23 callgsubr
          417 903 -94 callgsubr
          -225 -262 -91 callgsubr
          -186 -880 -105 callgsubr
          endchar
        </CharString>
        <CharString name="uni01D8">
          -45 callsubr
          122 95 35 132 -50 callgsubr
          hintmask 10111110
          313 758 -94 callgsubr
          -225 -262 -83 callsubr
        </CharString>
        <CharString name="uni01D9">
          -49 callsubr
          107 95 32 135 23 callgsubr
          418 900 -93 callsubr
          -36 -262 -91 callgsubr
          -186 -880 -105 callgsubr
          endchar
        </CharString>
        <CharString name="uni01DA">
          -45 callsubr
          122 95 32 135 -50 callgsubr
          hintmask 10111110
          314 755 -93 callsubr
          -36 -262 -83 callsubr
        </CharString>
        <CharString name="uni01DB">
          -49 callsubr
          107 95 35 132 23 callgsubr
          423 903 -78 callgsubr
          -38 -259 -91 callgsubr
          -186 -880 -105 callgsubr
          endchar
        </CharString>
        <CharString name="uni01DC">
          -45 callsubr
          122 95 35 132 -50 callgsubr
          hintmask 10111110
          319 758 -78 callgsubr
          -38 -259 -83 callsubr
        </CharString>
        <CharString name="uni01EA">
          95 -182 65 106 82 547 81 hstem
          37 98 201 85 221 98 vstem
          444 699 rmoveto
          -220 -139 -122 -225 -39 hvcurveto
          -6 -31 -3 -32 -33 vvcurveto
          -168 110 -99 187 18 18 1 2 17 vhcurveto
          -28 -25 -23 -31 -44 -43 callsubr
          140 43 89 112 30 175 rrcurveto
          6 31 3 32 33 vvcurveto
          166 -110 98 -186 1 vhcurveto
          191 -347 -55 callsubr
          189 33 99 91 170 hhcurveto
          124 74 -68 -116 -29 -2 -27 -5 -26 hvcurveto
          endchar
        </CharString>
        <CharString name="uni01EB">
          -182 65 105 -15 callsubr
          hstem
          22 88 105 85 127 88 vstem
          300 538 rmoveto
          -156 -90 -88 -181 -27 hvcurveto
          -29 callgsubr
          9 9 0 1 9 vhcurveto
          -26 -24 -22 -30 -43 -43 callsubr
          1 vlineto
          86 35 53 82 19 131 rrcurveto
          3 30 3 24 22 vvcurveto
          129 -79 76 -136 vhcurveto
          121 -269 rmoveto
          -146 -21 -55 -61 -105 hhcurveto
          -85 -43 43 78 -2 hvcurveto
          20 1 26 4 28 vhcurveto
          146 21 55 62 105 hhcurveto
          86 43 -43 -79 2 hvcurveto
          -20 -2 -26 -4 -28 vhcurveto
          endchar
        </CharString>
        <CharString name="uni01F1">
          650 0 83 520 83 51 callsubr
          18 hmoveto
          -75 callsubr
          -234 hlineto
          546 -686 rmoveto
          -78 callsubr
          -566 34 -75 callgsubr
          endchar
        </CharString>
        <CharString name="uni01F2">
          539 0 73 -73 83 370 73 77 83 hstemhm
          586 98 hintmask 10111000
          18 hmoveto
          -75 callsubr
          -234 hlineto
          hintmask 01111000
          -11 -603 -75 callgsubr
          hintmask 10111000
          409 -83 rmoveto
          -82 callsubr
          endchar
        </CharString>
        <CharString name="uni01F3">
          373 -12 73 -61 73 380 73 -61 73 185 -20 -36 callgsubr
          331 12 rmoveto
          -82 callsubr
          hintmask 10011100
          -314 14 -41 callsubr
        </CharString>
        <CharString name="uni01F4">
          -23 callgsubr
          38 132 -7 callgsubr
          hintmask 10111101
          603 865 -38 callsubr
          247 -284 -100 callsubr
        </CharString>
        <CharString name="uni01F5">
          -34 callsubr
          85 132 hstemhm
          21 91 hintmask 11101100
          268 591 -94 callgsubr
          -186 -905 -18 callsubr
          hintmask 11011100
          17 callsubr
          hintmask 11101100
          -94 callsubr
        </CharString>
        <CharString name="uni0200">
          39 callgsubr
          327 736 -84 callsubr
          -446 -865 -101 callsubr
        </CharString>
        <CharString name="uni0201">
          -58 callgsubr
          85 132 36 callsubr
          299 591 rmoveto
          -38 132 rlineto
          -97 hlineto
          -2 -3 61 -129 rlineto
          215 hmoveto
          -38 132 rlineto
          -97 hlineto
          -2 -3 61 -129 rlineto
          78 -503 rmoveto
          hintmask 10111100
          -66 callgsubr
          hintmask 11011100
          -106 callsubr
          -44 callgsubr
          -80 callgsubr
        </CharString>
        <CharString name="uni0202">
          -68 callgsubr
          118 64 hstem
          -41 654 vstem
          277 751 -89 callgsubr
          -318 -79 callgsubr
          endchar
        </CharString>
        <CharString name="uni0203">
          -58 callgsubr
          153 64 36 callsubr
          328 659 rmoveto
          64 12 -31 -22 -1 hvcurveto
          61 hlineto
          1 6 1 6 6 vvcurveto
          50 -34 49 -93 -120 -36 -62 -55 -10 vhcurveto
          61 hlineto
          22 9 21 31 64 hhcurveto
          112 -571 rmoveto
          hintmask 10111100
          -66 callgsubr
          hintmask 11011100
          -106 callsubr
          -44 callgsubr
          -80 callgsubr
        </CharString>
        <CharString name="uni0204">
          38 callsubr
          327 736 -84 callsubr
          -387 -865 rmoveto
          -102 callsubr
          endchar
        </CharString>
        <CharString name="uni0205">
          -60 callgsubr
          53 132 hstem
          -20 callsubr
          vstem
          222 591 -84 callsubr
          -47 -732 -103 callgsubr
        </CharString>
        <CharString name="uni0206">
          -59 callsubr
          118 64 41 callsubr
          277 751 -89 callgsubr
          -259 -751 rmoveto
          -102 callsubr
          endchar
        </CharString>
        <CharString name="uni0207">
          -60 callgsubr
          121 64 hstem
          -20 callsubr
          vstem
          172 606 -89 callgsubr
          81 -618 -103 callgsubr
        </CharString>
        <CharString name="uni0208">
          -405 10 callsubr
          31 299 vstem
          115 736 -84 callsubr
          -162 -865 -57 callsubr
        </CharString>
        <CharString name="uni0209">
          -405 21 20 callgsubr
          hstem
          29 276 vstem
          90 591 -84 callsubr
          -133 -720 -56 callsubr
        </CharString>
        <CharString name="uni020A">
          -4 callgsubr
          138 64 hstem
          31 327 vstem
          65 751 -89 callgsubr
          -34 -751 -57 callsubr
        </CharString>
        <CharString name="uni020B">
          -29 callsubr
          153 64 hstem
          35 298 vstem
          40 606 -89 callgsubr
          -5 -606 -56 callsubr
        </CharString>
        <CharString name="uni020C">
          -48 callgsubr
          37 132 -49 callgsubr
          352 736 -84 callsubr
          -96 -876 -107 callgsubr
          endchar
        </CharString>
        <CharString name="uni020D">
          -28 callsubr
          53 132 hstem
          -39 callgsubr
          vstem
          220 591 -84 callsubr
          -62 -732 -105 callsubr
        </CharString>
        <CharString name="uni020E">
          -48 callgsubr
          105 64 -49 callgsubr
          302 751 -89 callgsubr
          32 -762 -107 callgsubr
          endchar
        </CharString>
        <CharString name="uni020F">
          -28 callsubr
          121 64 hstem
          -39 callgsubr
          vstem
          170 606 -89 callgsubr
          66 -618 -105 callsubr
        </CharString>
        <CharString name="uni0210">
          27 callsubr
          50 132 hstem
          581 98 vstem
          308 736 -84 callsubr
          -368 -865 rmoveto
          -85 callsubr
          endchar
        </CharString>
        <CharString name="uni0211">
          -5 callsubr
          81 132 hstemhm
          13 348 hintmask 11001100
          131 591 -84 callsubr
          -196 -720 -67 callgsubr
        </CharString>
        <CharString name="uni0212">
          27 callsubr
          118 64 hstem
          581 98 vstem
          258 751 -89 callgsubr
          -240 -751 rmoveto
          -85 callsubr
          endchar
        </CharString>
        <CharString name="uni0213">
          -5 callsubr
          149 64 hstemhm
          13 361 hintmask 11001100
          81 606 -89 callgsubr
          -68 -606 -67 callgsubr
        </CharString>
        <CharString name="uni0214">
          -49 callsubr
          70 132 23 callgsubr
          337 736 -84 callsubr
          -97 -877 -105 callgsubr
          endchar
        </CharString>
        <CharString name="uni0215">
          -17 callsubr
          233 591 -84 callsubr
          -120 -732 rmoveto
          -67 callsubr
          hintmask 01111100
          -79 callsubr
          hintmask 10111100
          -103 callsubr
          vhcurveto
          endchar
        </CharString>
        <CharString name="uni0216">
          -49 callsubr
          138 64 23 callgsubr
          287 751 -89 callgsubr
          31 -763 -105 callgsubr
          endchar
        </CharString>
        <CharString name="uni0217">
          -45 callsubr
          153 64 -50 callgsubr
          hintmask 10111100
          183 606 -89 callgsubr
          8 -618 rmoveto
          -67 callsubr
          hintmask 01111100
          -79 callsubr
          hintmask 10111100
          -103 callsubr
          vhcurveto
          endchar
        </CharString>
        <CharString name="uni021A">
          -72 -149 91 79 -32 callgsubr
          -144 -833 -70 callgsubr
        </CharString>
        <CharString name="uni021B">
          -405 -149 91 47 48 callgsubr
          hintmask 00000000
          hintmask 11110000
          135 -11 -77 callgsubr
          -128 -219 -70 callgsubr
        </CharString>
        <CharString name="uni0232">
          50 callgsubr
          106 72 hstem
          76 636 vstem
          255 772 -69 callsubr
          -42 -844 rmoveto
          -81 callsubr
          endchar
        </CharString>
        <CharString name="uni0232.loclGUA">
          -9 callsubr
          106 72 18 callsubr
          275 772 -69 callsubr
          hintmask 11111000
          -16 -856 -98 callsubr
        </CharString>
        <CharString name="uni0233">
          -26 callsubr
          121 72 hstemhm
          -40 563 hintmask 10111000
          152 627 -69 callsubr
          -127 -881 -93 callgsubr
          hintmask 01111000
          -11 -57 rlineto
          hintmask 10111000
          7 callsubr
        </CharString>
        <CharString name="uni0233.loclGUA">
          -9 callgsubr
          121 72 hstem
          38 91 vstem
          190 627 -69 callsubr
          -2 -881 -99 callgsubr
        </CharString>
        <CharString name="uni0237">
          -461 -182 69 639 -20 hstem
          -107 301 vstem
          -40 -182 -80 callsubr
        </CharString>
        <CharString name="uni0259">
          -12 73 153 73 178 73 hstem
          30 88 316 91 vstem
          221 -12 rmoveto
          90 66 20 46 48 hvcurveto
          64 61 36 127 95 vvcurveto
          128 -72 73 -131 -69 -55 -12 -24 -43 vhcurveto
          -54 -32 -34 -51 -12 -72 rrcurveto
          86 hlineto
          85 15 70 33 79 hhcurveto
          86 43 -40 -91 -14 -1 -16 -2 -17 hvcurveto
          -387 hlineto
          -8 -44 rlineto
          -4 -23 -2 -23 -20 vvcurveto
          -120 68 -69 123 vhcurveto
          15 73 rmoveto
          -73 -45 29 77 14 2 16 3 17 hvcurveto
          293 hlineto
          -109 -29 -61 -44 -90 hhcurveto
          endchar
        </CharString>
        <CharString name="uni0272">
          -182 69 134 -1 callsubr
          4 callgsubr
          hintmask 11101100
          -40 27 callgsubr
          64 362 -96 callgsubr
          -64 -68 -34 -49 -40 vhcurveto
          -7 hlineto
          hintmask 11011100
          71 -64 vlineto
          -104 -591 68 callgsubr
          -31 hhcurveto
          -44 hlineto
          -10 -57 rlineto
          hintmask 11101100
          -31 callsubr
        </CharString>
        <CharString name="uni02BC">
          -482 490 196 -91 91 hstemhm
          85 122 hintmask 00000000
          hintmask 10100000
          85 490 rmoveto
          46 hlineto
          hintmask 01100000
          -11 callgsubr
          32 hlineto
          endchar
        </CharString>
        <CharString name="uni02C9">
          -350 627 72 hstem
          6 318 vstem
          6 627 -69 callsubr
          endchar
        </CharString>
        <CharString name="uni030F">
          -683 591 132 hstem
          -295 276 vstem
          -234 591 -84 callsubr
          endchar
        </CharString>
</ttFont>
